<?xml version="1.0" standalone="no"?>
<!DOCTYPE svg PUBLIC "-//W3C//DTD SVG 1.1//EN" "http://www.w3.org/Graphics/SVG/1.1/DTD/svg11.dtd">
<svg xmlns="http://www.w3.org/2000/svg" id="Camada_2" data-name="Camada 2" viewBox="0 0 369.14 73.68" width="369.1400146484375" height="73.68000030517578">
  <defs>
    <style>
      .cls-1 {
        fill: #fff;
      }

      .cls-2 {
        fill: #eb574d;
      }
    </style>
  </defs>
  <g id="Camada_1-2" data-name="Camada 1">
    <g>
      <rect class="cls-2" y="70.71" width="23.45" height="2.97"/>
      <rect class="cls-2" x="52.78" width="23.45" height="2.97"/>
      <g>
        <path class="cls-1" d="M52.88,14.23c-.14-.03-.27-.07-.41-.1-.87-.18-1.75-.28-2.63-.38-.67-.07-1.34-.15-2.01-.22-.31-.03-.67-.03-1.02-.05,3.05,4.33,4.59,10.08,4.59,17.26,0,9.14-2.38,16.24-7.13,21.28-4.75,5.05-11.37,7.57-19.86,7.57H5.36V4.03h19.06c8.85,0,15.55,2.25,20.12,6.77.76.75,1.45,1.57,2.09,2.44,1.67-.4,3.41-.64,5.13-.79-1.07-1.52-2.3-2.9-3.7-4.14C42.27,3.21,33.77.65,22.55.65H.02v62.33h23.06c7,0,13.03-1.28,18.07-3.83,5.05-2.55,8.9-6.25,11.57-11.08s4-10.61,4-17.32-1.29-12.06-3.85-16.51h0Z"/>
        <path class="cls-1" d="M78.19,17.35c-5.64-5.58-13.51-8.37-23.59-8.37s-17.96,2.79-23.59,8.37c-5.64,5.58-8.46,13.38-8.46,23.42,0,7.3,1.44,13.43,4.31,18.41.37-.14.77-.25,1.1-.39.65-.26,1.3-.53,1.94-.79.55-.22,1.08-.46,1.62-.7-2.41-4.47-3.62-9.97-3.62-16.52,0-9.02,2.34-16.01,7.03-20.97,4.69-4.96,11.25-7.43,19.68-7.43s14.99,2.48,19.68,7.43c4.69,4.96,7.03,11.95,7.03,20.97s-2.34,16.25-7.03,21.33c-4.69,5.08-11.25,7.61-19.68,7.61s-14.99-2.54-19.68-7.61c-1-1.08-1.88-2.25-2.67-3.52-1.73.38-3.51.68-5.27.82,1.11,1.9,2.44,3.63,3.97,5.19,5.61,5.67,13.49,8.5,23.64,8.5s18.03-2.84,23.64-8.5c5.61-5.67,8.42-13.61,8.42-23.82s-2.82-17.84-8.46-23.42h0Z"/>
      </g>
      <g>
        <path class="cls-1" d="M111.75,52.9v-29.98h9.91c2.07,0,4.01.39,5.82,1.17,1.81.78,3.4,1.86,4.77,3.23,1.37,1.38,2.44,2.97,3.22,4.78.78,1.81,1.17,3.74,1.17,5.81s-.39,4.01-1.17,5.81c-.78,1.81-1.85,3.4-3.22,4.78-1.37,1.38-2.96,2.46-4.77,3.23-1.81.78-3.75,1.17-5.82,1.17h-9.91ZM114.06,50.59h7.6c1.76,0,3.4-.33,4.93-.99,1.53-.66,2.87-1.57,4.04-2.73,1.16-1.16,2.07-2.51,2.73-4.04.66-1.53.99-3.17.99-4.93s-.33-3.4-.99-4.92c-.66-1.53-1.57-2.87-2.74-4.04-1.17-1.16-2.52-2.07-4.05-2.73-1.53-.66-3.16-.99-4.9-.99h-7.6v25.35Z"/>
        <path class="cls-1" d="M140.47,52.9v-21.41h2.31v3.28c.77-1.18,1.79-2.13,3.06-2.83,1.27-.7,2.66-1.05,4.15-1.05.84,0,1.65.11,2.42.32l-.96,2.27c-.61-.17-1.21-.26-1.8-.26-1.26,0-2.41.31-3.45.92-1.04.61-1.87,1.44-2.49,2.48-.62,1.04-.93,2.2-.93,3.47v12.81h-2.31Z"/>
        <path class="cls-1" d="M156.42,27.44c-.4,0-.74-.13-1.02-.4-.28-.26-.42-.6-.42-1s.14-.73.42-1c.28-.26.62-.4,1.02-.4s.72.13,1,.4c.28.26.42.6.42,1s-.14.73-.41,1c-.27.26-.61.4-1.01.4ZM155.24,31.49h2.31v21.41h-2.31v-21.41Z"/>
        <path class="cls-1" d="M171.99,53.45c-1.97,0-3.77-.51-5.39-1.52-1.62-1.01-2.91-2.37-3.88-4.08-.96-1.71-1.45-3.59-1.45-5.66,0-1.57.28-3.04.84-4.4.56-1.36,1.32-2.56,2.3-3.6.98-1.03,2.12-1.84,3.42-2.43,1.3-.59,2.68-.88,4.15-.88,1.56,0,2.99.3,4.31.91,1.32.61,2.46,1.46,3.42,2.56.96,1.1,1.69,2.39,2.21,3.89.51,1.49.75,3.12.71,4.89h-18.93c.16,1.53.62,2.89,1.38,4.1.76,1.21,1.75,2.16,2.94,2.85,1.2.69,2.52,1.05,3.96,1.06,1.58,0,3.01-.42,4.28-1.25,1.27-.84,2.29-1.98,3.06-3.44l2.33.54c-.86,1.9-2.15,3.45-3.88,4.66-1.73,1.21-3.66,1.81-5.8,1.81ZM163.64,41.16h16.66c-.09-1.47-.51-2.82-1.27-4.06-.76-1.23-1.76-2.22-2.99-2.97-1.23-.74-2.58-1.11-4.05-1.11s-2.81.36-4.03,1.09c-1.21.73-2.2,1.71-2.97,2.94-.76,1.23-1.22,2.6-1.36,4.1Z"/>
        <path class="cls-1" d="M186.27,52.9V20.78h2.31v32.12h-2.31Z"/>
        <path class="cls-1" d="M193.72,52.9V20.78h2.31v32.12h-2.31Z"/>
        <path class="cls-1" d="M210.51,53.45c-1.97,0-3.77-.51-5.39-1.52-1.62-1.01-2.91-2.37-3.88-4.08-.96-1.71-1.45-3.59-1.45-5.66,0-1.57.28-3.04.84-4.4.56-1.36,1.32-2.56,2.3-3.6.98-1.03,2.12-1.84,3.42-2.43s2.68-.88,4.15-.88c1.56,0,2.99.3,4.32.91,1.32.61,2.46,1.46,3.42,2.56.96,1.1,1.69,2.39,2.21,3.89.51,1.49.75,3.12.71,4.89h-18.93c.16,1.53.62,2.89,1.38,4.1.76,1.21,1.74,2.16,2.94,2.85,1.2.69,2.52,1.05,3.96,1.06,1.58,0,3.01-.42,4.28-1.25s2.29-1.98,3.06-3.44l2.33.54c-.86,1.9-2.15,3.45-3.88,4.66-1.73,1.21-3.66,1.81-5.8,1.81ZM202.16,41.16h16.66c-.09-1.47-.51-2.82-1.27-4.06-.76-1.23-1.76-2.22-2.99-2.97-1.23-.74-2.58-1.11-4.05-1.11s-2.81.36-4.03,1.09c-1.21.73-2.2,1.71-2.97,2.94-.76,1.23-1.22,2.6-1.36,4.1Z"/>
        <path class="cls-1" d="M249.2,53.45c-2.03,0-3.93-.4-5.72-1.21-1.78-.81-3.36-1.92-4.71-3.35-1.36-1.43-2.42-3.08-3.19-4.96-.77-1.88-1.16-3.89-1.16-6.03s.39-4.15,1.16-6.03,1.83-3.53,3.19-4.96c1.36-1.43,2.93-2.54,4.71-3.35,1.78-.81,3.69-1.21,5.72-1.21s3.95.4,5.74,1.21c1.78.81,3.35,1.92,4.71,3.35,1.36,1.43,2.42,3.08,3.18,4.96s1.15,3.89,1.15,6.03-.38,4.15-1.15,6.03c-.76,1.88-1.82,3.53-3.18,4.96-1.36,1.43-2.93,2.54-4.71,3.35-1.78.81-3.7,1.21-5.74,1.21ZM249.2,51.14c1.74,0,3.36-.35,4.87-1.05,1.51-.7,2.83-1.66,3.96-2.88s2.02-2.63,2.67-4.23c.64-1.6.96-3.29.96-5.07s-.32-3.52-.97-5.12c-.65-1.6-1.55-3-2.69-4.22-1.14-1.21-2.46-2.17-3.96-2.86-1.5-.69-3.11-1.04-4.84-1.04s-3.37.35-4.87,1.05c-1.51.7-2.83,1.66-3.96,2.88s-2.02,2.63-2.67,4.23c-.64,1.6-.96,3.29-.96,5.07s.32,3.52.97,5.12c.65,1.6,1.55,3.01,2.69,4.23,1.14,1.22,2.47,2.17,3.97,2.86,1.51.69,3.12,1.03,4.83,1.03Z"/>
        <path class="cls-1" d="M268.47,52.9V20.78h2.31v32.12h-2.31Z"/>
        <path class="cls-1" d="M277.1,27.44c-.4,0-.74-.13-1.02-.4-.28-.26-.42-.6-.42-1s.14-.73.42-1c.28-.26.62-.4,1.02-.4s.72.13,1,.4c.28.26.42.6.42,1s-.14.73-.41,1c-.27.26-.61.4-1.01.4ZM275.92,31.49h2.31v21.41h-2.31v-21.41Z"/>
        <path class="cls-1" d="M292.65,52.9h-2.91l-7.82-21.48h2.46l6.81,18.74,6.81-18.74h2.46l-7.82,21.48Z"/>
        <path class="cls-1" d="M312.71,53.45c-1.97,0-3.77-.51-5.39-1.52-1.62-1.01-2.91-2.37-3.88-4.08-.96-1.71-1.45-3.59-1.45-5.66,0-1.57.28-3.04.84-4.4.56-1.36,1.32-2.56,2.3-3.6.98-1.03,2.12-1.84,3.42-2.43,1.3-.59,2.68-.88,4.15-.88,1.56,0,2.99.3,4.31.91s2.46,1.46,3.42,2.56c.96,1.1,1.69,2.39,2.21,3.89.51,1.49.75,3.12.71,4.89h-18.93c.16,1.53.62,2.89,1.38,4.1.76,1.21,1.75,2.16,2.94,2.85,1.2.69,2.52,1.05,3.96,1.06,1.58,0,3.01-.42,4.28-1.25,1.27-.84,2.29-1.98,3.06-3.44l2.33.54c-.86,1.9-2.15,3.45-3.88,4.66-1.73,1.21-3.66,1.81-5.8,1.81ZM304.36,41.16h16.66c-.09-1.47-.51-2.82-1.27-4.06-.76-1.23-1.76-2.22-2.99-2.97-1.23-.74-2.58-1.11-4.05-1.11s-2.81.36-4.03,1.09c-1.21.73-2.2,1.71-2.97,2.94-.76,1.23-1.22,2.6-1.36,4.1Z"/>
        <path class="cls-1" d="M328.13,27.44c-.4,0-.74-.13-1.02-.4-.28-.26-.42-.6-.42-1s.14-.73.42-1c.28-.26.62-.4,1.02-.4s.72.13,1,.4c.28.26.42.6.42,1s-.14.73-.41,1c-.27.26-.61.4-1.01.4ZM326.95,31.49h2.31v21.41h-2.31v-21.41Z"/>
        <path class="cls-1" d="M334.36,52.9v-21.41h2.31v3.28c.77-1.18,1.79-2.13,3.06-2.83,1.27-.7,2.66-1.05,4.15-1.05.84,0,1.65.11,2.42.32l-.96,2.27c-.61-.17-1.21-.26-1.8-.26-1.26,0-2.41.31-3.45.92-1.04.61-1.87,1.44-2.5,2.48-.62,1.04-.93,2.2-.93,3.47v12.81h-2.31Z"/>
        <path class="cls-1" d="M365.99,31.49h2.31v21.41h-2.31l-.06-4.39c-.73,1.48-1.77,2.68-3.12,3.59s-2.97,1.36-4.85,1.36c-1.56,0-3.02-.3-4.38-.89s-2.57-1.41-3.61-2.44c-1.04-1.03-1.86-2.23-2.44-3.6-.59-1.36-.88-2.83-.88-4.4s.29-3.01.87-4.37c.58-1.36,1.38-2.55,2.41-3.59,1.03-1.03,2.22-1.84,3.58-2.42,1.36-.58,2.81-.87,4.35-.87,1.9,0,3.54.46,4.94,1.38s2.48,2.12,3.27,3.61l-.06-4.39ZM357.93,51.18c1.64,0,3.05-.4,4.23-1.21,1.18-.81,2.08-1.9,2.71-3.27.63-1.37.94-2.88.94-4.52s-.32-3.21-.95-4.57c-.64-1.36-1.54-2.45-2.72-3.25-1.18-.81-2.58-1.21-4.21-1.21s-3.16.41-4.51,1.22c-1.35.81-2.42,1.91-3.22,3.28-.8,1.37-1.2,2.88-1.2,4.54s.41,3.2,1.23,4.56c.82,1.36,1.91,2.43,3.27,3.23,1.36.8,2.83,1.2,4.43,1.2Z"/>
      </g>
      <g>
        <path class="cls-2" d="M202.44,67.42c-.42,0-.82-.07-1.21-.2s-.73-.32-1.02-.56c-.29-.24-.49-.53-.61-.86l.73-.27c.08.23.23.43.45.59.22.17.47.29.76.38.29.09.59.13.89.13.36,0,.69-.06,1-.18.31-.12.56-.28.75-.5.19-.21.28-.47.28-.75s-.1-.53-.3-.72c-.2-.19-.45-.34-.76-.45-.31-.11-.63-.19-.97-.25-.53-.09-1.01-.22-1.43-.38-.42-.16-.75-.39-1-.68-.25-.29-.37-.68-.37-1.16,0-.45.13-.84.39-1.17.26-.33.6-.59,1.03-.77.43-.18.88-.27,1.38-.27.41,0,.8.06,1.19.19.39.13.73.31,1.02.55s.51.54.64.89l-.74.27c-.08-.23-.23-.43-.45-.6-.22-.17-.47-.29-.76-.38-.29-.09-.59-.13-.9-.13-.35,0-.68.05-.99.18-.31.12-.55.29-.74.5-.19.21-.28.46-.28.75,0,.33.09.59.26.77s.42.31.72.4c.3.09.65.17,1.03.24.5.09.96.22,1.39.4.43.18.77.42,1.03.72.26.3.39.67.39,1.11s-.13.83-.39,1.17c-.26.33-.6.59-1.03.77-.42.18-.89.27-1.39.27Z"/>
        <path class="cls-2" d="M208.89,67.42c-.51,0-.98-.13-1.4-.4-.42-.26-.76-.62-1.01-1.06-.25-.44-.38-.94-.38-1.47,0-.41.07-.79.22-1.14.14-.35.34-.67.6-.94.25-.27.55-.48.89-.63s.7-.23,1.08-.23c.51,0,.98.13,1.4.4.42.26.76.62,1.01,1.06.25.45.38.94.38,1.48,0,.4-.07.78-.22,1.14-.14.35-.34.66-.6.93-.25.27-.55.48-.89.63s-.7.23-1.08.23ZM208.89,66.64c.38,0,.72-.1,1.02-.3s.54-.46.72-.79c.18-.33.26-.68.26-1.06s-.09-.75-.27-1.08c-.18-.33-.42-.59-.72-.79-.3-.2-.64-.29-1.02-.29s-.72.1-1.02.3-.54.46-.72.79c-.18.33-.26.69-.26,1.08s.09.76.27,1.09c.18.33.43.58.73.77s.64.29,1,.29Z"/>
        <path class="cls-2" d="M216.54,65.88l.7.38c-.25.35-.57.64-.96.85-.39.21-.81.32-1.26.32-.51,0-.98-.13-1.4-.4-.42-.26-.76-.62-1.01-1.06-.25-.44-.38-.94-.38-1.47,0-.41.07-.79.22-1.14.14-.35.34-.67.6-.94.25-.27.55-.48.89-.63s.7-.23,1.08-.23c.45,0,.87.11,1.26.32.39.21.71.5.96.85l-.7.37c-.19-.25-.43-.43-.7-.57-.27-.13-.55-.2-.83-.2-.38,0-.72.1-1.02.3-.3.2-.55.46-.72.79-.18.33-.26.69-.26,1.08s.09.75.27,1.08c.18.33.42.59.73.78.3.2.64.29,1.01.29.3,0,.59-.07.86-.21s.49-.33.67-.55Z"/>
        <path class="cls-2" d="M218.54,60.73c-.13,0-.23-.04-.32-.13-.09-.08-.13-.19-.13-.31s.04-.23.13-.31c.09-.08.19-.13.32-.13s.23.04.31.13c.09.08.13.19.13.31s-.04.23-.13.31c-.09.08-.19.13-.32.13ZM218.15,61.7h.78v5.57h-.78v-5.57Z"/>
        <path class="cls-2" d="M222.66,67.42c-.51,0-.98-.13-1.4-.4-.42-.26-.76-.62-1.01-1.06-.25-.44-.38-.94-.38-1.47,0-.41.07-.79.22-1.14.14-.35.34-.67.6-.94.25-.27.55-.48.89-.63s.7-.23,1.08-.23c.41,0,.79.08,1.14.25.35.16.65.39.9.69.25.29.44.64.57,1.03.13.39.18.82.16,1.28h-4.72c.04.35.16.67.34.95.18.28.41.5.69.66.28.16.59.24.93.25.37,0,.71-.1,1-.29.3-.19.54-.46.72-.8l.79.18c-.22.49-.56.9-1.01,1.21-.45.31-.95.47-1.51.47ZM220.68,64.16h3.96c-.03-.35-.13-.66-.32-.95-.18-.29-.42-.52-.71-.69-.29-.17-.61-.26-.95-.26s-.66.08-.95.25c-.29.17-.52.4-.7.69-.18.29-.29.61-.33.96Z"/>
        <path class="cls-2" d="M230.9,58.92h.78v8.36h-.78v-1.04c-.19.36-.46.64-.79.86-.34.22-.74.33-1.2.33-.41,0-.78-.08-1.14-.23s-.66-.36-.93-.63c-.27-.27-.48-.58-.63-.93s-.23-.73-.23-1.14.08-.78.23-1.14c.15-.35.36-.67.63-.94.27-.27.58-.48.93-.63.35-.15.73-.23,1.14-.23.46,0,.86.11,1.2.33.34.22.6.5.79.85v-3.82ZM228.92,66.66c.4,0,.74-.1,1.02-.29s.51-.46.66-.79.23-.69.23-1.09-.08-.78-.23-1.11c-.16-.33-.38-.59-.66-.78-.29-.19-.63-.29-1.02-.29s-.75.1-1.08.29c-.32.2-.58.46-.77.79-.19.33-.29.7-.29,1.1s.1.77.29,1.1c.2.33.46.59.78.78.33.19.68.29,1.06.29Z"/>
        <path class="cls-2" d="M237.56,61.7h.78v5.57h-.78l-.03-1.04c-.18.35-.44.64-.76.85-.33.22-.72.33-1.17.33-.41,0-.79-.08-1.15-.23-.36-.15-.67-.37-.94-.64-.27-.27-.48-.58-.63-.94-.15-.36-.23-.74-.23-1.15s.08-.78.23-1.13c.15-.35.36-.66.62-.93s.57-.48.92-.63c.35-.15.73-.23,1.13-.23.46,0,.87.11,1.21.33.35.22.62.51.82.87l-.03-1.04ZM235.58,66.66c.4,0,.74-.1,1.02-.29s.51-.46.66-.79.23-.69.23-1.09-.08-.78-.23-1.11c-.16-.33-.38-.59-.66-.78-.29-.19-.63-.29-1.02-.29s-.75.1-1.08.29c-.33.2-.58.46-.77.79s-.29.7-.29,1.1.1.77.29,1.1c.2.33.46.59.78.78.33.19.68.29,1.06.29Z"/>
        <path class="cls-2" d="M243.93,58.92h.78v8.36h-.78v-1.04c-.19.36-.46.64-.79.86-.34.22-.74.33-1.2.33-.41,0-.78-.08-1.14-.23s-.66-.36-.93-.63c-.27-.27-.48-.58-.63-.93s-.23-.73-.23-1.14.08-.78.23-1.14c.15-.35.36-.67.63-.94.27-.27.58-.48.93-.63.35-.15.73-.23,1.14-.23.46,0,.86.11,1.2.33.34.22.6.5.79.85v-3.82ZM241.95,66.66c.4,0,.74-.1,1.02-.29s.51-.46.66-.79.23-.69.23-1.09-.08-.78-.23-1.11c-.16-.33-.38-.59-.66-.78-.29-.19-.63-.29-1.02-.29s-.75.1-1.08.29c-.32.2-.58.46-.77.79-.19.33-.29.7-.29,1.1s.1.77.29,1.1c.2.33.46.59.78.78.33.19.68.29,1.06.29Z"/>
        <path class="cls-2" d="M248.46,67.42c-.51,0-.98-.13-1.4-.4-.42-.26-.76-.62-1.01-1.06-.25-.44-.38-.94-.38-1.47,0-.41.07-.79.22-1.14.14-.35.34-.67.6-.94.25-.27.55-.48.89-.63s.7-.23,1.08-.23c.41,0,.79.08,1.14.25.35.16.65.39.9.69.25.29.44.64.57,1.03.13.39.18.82.16,1.28h-4.72c.04.35.16.67.34.95.18.28.41.5.69.66.28.16.59.24.93.25.37,0,.71-.1,1-.29.3-.19.54-.46.72-.8l.79.18c-.22.49-.56.9-1.01,1.21-.45.31-.95.47-1.51.47ZM246.47,64.16h3.96c-.03-.35-.13-.66-.32-.95-.18-.29-.42-.52-.71-.69-.29-.17-.61-.26-.95-.26s-.66.08-.95.25c-.29.17-.52.4-.7.69-.18.29-.29.61-.33.96Z"/>
        <path class="cls-2" d="M255.07,67.28v-7.8h.78v7.8h-.78Z"/>
        <path class="cls-2" d="M262.21,63.83v3.45h-.78v-3.29c0-.3-.07-.58-.22-.83-.15-.25-.35-.45-.6-.6-.25-.15-.53-.22-.83-.22s-.58.07-.83.22c-.25.15-.45.35-.6.6-.15.25-.22.53-.22.83v3.29h-.78v-5.57h.78v.77c.2-.28.45-.51.77-.67.32-.17.66-.25,1.03-.25.42,0,.8.1,1.15.31s.62.48.82.82c.2.35.31.73.31,1.15Z"/>
        <path class="cls-2" d="M267.8,58.92h.78v8.36h-.78v-1.04c-.19.36-.46.64-.79.86-.34.22-.74.33-1.2.33-.41,0-.78-.08-1.14-.23s-.66-.36-.93-.63c-.27-.27-.48-.58-.63-.93s-.23-.73-.23-1.14.08-.78.23-1.14c.15-.35.36-.67.63-.94.27-.27.58-.48.93-.63.35-.15.73-.23,1.14-.23.46,0,.86.11,1.2.33.34.22.6.5.79.85v-3.82ZM265.82,66.66c.4,0,.74-.1,1.02-.29s.51-.46.66-.79.23-.69.23-1.09-.08-.78-.23-1.11c-.16-.33-.38-.59-.66-.78-.29-.19-.63-.29-1.02-.29s-.75.1-1.08.29c-.32.2-.58.46-.77.79-.19.33-.29.7-.29,1.1s.1.77.29,1.1c.2.33.46.59.78.78.33.19.68.29,1.06.29Z"/>
        <path class="cls-2" d="M270.31,60.73c-.13,0-.23-.04-.32-.13-.09-.08-.13-.19-.13-.31s.04-.23.13-.31c.09-.08.19-.13.32-.13s.23.04.31.13c.09.08.13.19.13.31s-.04.23-.13.31c-.09.08-.19.13-.32.13ZM269.92,61.7h.78v5.57h-.78v-5.57Z"/>
        <path class="cls-2" d="M274.65,67.28h-.99l-2.03-5.59h.83l1.7,4.67,1.7-4.67h.83l-2.03,5.59Z"/>
        <path class="cls-2" d="M278.01,60.73c-.13,0-.23-.04-.32-.13-.09-.08-.13-.19-.13-.31s.04-.23.13-.31c.09-.08.19-.13.32-.13s.23.04.31.13c.09.08.13.19.13.31s-.04.23-.13.31c-.09.08-.19.13-.32.13ZM277.62,61.7h.78v5.57h-.78v-5.57Z"/>
        <path class="cls-2" d="M284.26,58.92h.78v8.36h-.78v-1.04c-.19.36-.46.64-.79.86-.34.22-.74.33-1.2.33-.41,0-.78-.08-1.14-.23s-.66-.36-.93-.63c-.27-.27-.48-.58-.63-.93s-.23-.73-.23-1.14.08-.78.23-1.14c.15-.35.36-.67.63-.94.27-.27.58-.48.93-.63.35-.15.73-.23,1.14-.23.46,0,.86.11,1.2.33.34.22.6.5.79.85v-3.82ZM282.28,66.66c.4,0,.74-.1,1.02-.29s.51-.46.66-.79.23-.69.23-1.09-.08-.78-.23-1.11c-.16-.33-.38-.59-.66-.78-.29-.19-.63-.29-1.02-.29s-.75.1-1.08.29c-.32.2-.58.46-.77.79-.19.33-.29.7-.29,1.1s.1.77.29,1.1c.2.33.46.59.78.78.33.19.68.29,1.06.29Z"/>
        <path class="cls-2" d="M286.16,65.14v-3.44h.78v3.28c0,.3.07.58.22.83.15.25.35.45.6.6.25.15.53.22.83.22s.58-.07.83-.22c.25-.15.44-.35.59-.6.15-.25.22-.53.22-.83v-3.28h.78v5.57s-.77,0-.77,0v-.78c-.2.28-.46.51-.77.67-.31.17-.66.25-1.03.25-.42,0-.8-.1-1.15-.31-.34-.2-.62-.48-.82-.82-.2-.35-.31-.73-.31-1.15Z"/>
        <path class="cls-2" d="M296.67,61.7h.78v5.57h-.78l-.03-1.04c-.18.35-.44.64-.76.85-.33.22-.72.33-1.17.33-.41,0-.79-.08-1.15-.23-.36-.15-.67-.37-.94-.64-.27-.27-.48-.58-.63-.94-.15-.36-.23-.74-.23-1.15s.08-.78.23-1.13c.15-.35.36-.66.62-.93s.57-.48.92-.63c.35-.15.73-.23,1.13-.23.46,0,.87.11,1.21.33.35.22.62.51.82.87l-.03-1.04ZM294.69,66.66c.4,0,.74-.1,1.02-.29s.51-.46.66-.79.23-.69.23-1.09-.08-.78-.23-1.11c-.16-.33-.38-.59-.66-.78-.29-.19-.63-.29-1.02-.29s-.75.1-1.08.29c-.33.2-.58.46-.77.79s-.29.7-.29,1.1.1.77.29,1.1c.2.33.46.59.78.78.33.19.68.29,1.06.29Z"/>
        <path class="cls-2" d="M298.63,67.28v-8.36h.78v8.36h-.78Z"/>
        <path class="cls-2" d="M308.01,58.92h.78v8.36h-.78v-1.04c-.19.36-.46.64-.79.86-.34.22-.74.33-1.2.33-.41,0-.78-.08-1.14-.23s-.66-.36-.93-.63c-.27-.27-.48-.58-.63-.93s-.23-.73-.23-1.14.08-.78.23-1.14c.15-.35.36-.67.63-.94.27-.27.58-.48.93-.63.35-.15.73-.23,1.14-.23.46,0,.86.11,1.2.33.34.22.6.5.79.85v-3.82ZM306.03,66.66c.4,0,.74-.1,1.02-.29s.51-.46.66-.79.23-.69.23-1.09-.08-.78-.23-1.11c-.16-.33-.38-.59-.66-.78-.29-.19-.63-.29-1.02-.29s-.75.1-1.08.29c-.32.2-.58.46-.77.79-.19.33-.29.7-.29,1.1s.1.77.29,1.1c.2.33.46.59.78.78.33.19.68.29,1.06.29Z"/>
        <path class="cls-2" d="M312.54,67.42c-.51,0-.98-.13-1.4-.4-.42-.26-.76-.62-1.01-1.06-.25-.44-.38-.94-.38-1.47,0-.41.07-.79.22-1.14.14-.35.34-.67.6-.94.25-.27.55-.48.89-.63s.7-.23,1.08-.23c.41,0,.79.08,1.14.25.35.16.65.39.9.69.25.29.44.64.57,1.03.13.39.18.82.16,1.28h-4.72c.04.35.16.67.34.95.18.28.41.5.69.66.28.16.59.24.93.25.37,0,.71-.1,1-.29.3-.19.54-.46.72-.8l.79.18c-.22.49-.56.9-1.01,1.21-.45.31-.95.47-1.51.47ZM310.56,64.16h3.96c-.03-.35-.13-.66-.32-.95-.18-.29-.42-.52-.71-.69-.29-.17-.61-.26-.95-.26s-.66.08-.95.25c-.29.17-.52.4-.7.69-.18.29-.29.61-.33.96Z"/>
        <path class="cls-2" d="M321.6,59.48h.97l2.84,7.8h-.83l-.61-1.67h-3.77l-.61,1.67h-.83l2.84-7.8ZM320.48,64.82h3.2l-1.6-4.39-1.6,4.39Z"/>
        <path class="cls-2" d="M330.55,58.92h.78v8.36h-.78v-1.04c-.19.36-.46.64-.79.86-.34.22-.74.33-1.2.33-.41,0-.78-.08-1.14-.23s-.66-.36-.93-.63c-.27-.27-.48-.58-.63-.93s-.23-.73-.23-1.14.08-.78.23-1.14c.15-.35.36-.67.63-.94.27-.27.58-.48.93-.63.35-.15.73-.23,1.14-.23.46,0,.86.11,1.2.33.34.22.6.5.79.85v-3.82ZM328.57,66.66c.4,0,.74-.1,1.02-.29s.51-.46.66-.79.23-.69.23-1.09-.08-.78-.23-1.11c-.16-.33-.38-.59-.66-.78-.29-.19-.63-.29-1.02-.29s-.75.1-1.08.29c-.32.2-.58.46-.77.79-.19.33-.29.7-.29,1.1s.1.77.29,1.1c.2.33.46.59.78.78.33.19.68.29,1.06.29Z"/>
        <path class="cls-2" d="M335.3,67.28h-.99l-2.03-5.59h.83l1.7,4.67,1.7-4.67h.83l-2.03,5.59Z"/>
        <path class="cls-2" d="M340.49,67.42c-.51,0-.98-.13-1.4-.4-.42-.26-.76-.62-1.01-1.06-.25-.44-.38-.94-.38-1.47,0-.41.07-.79.22-1.14.14-.35.34-.67.6-.94.25-.27.55-.48.89-.63s.7-.23,1.08-.23c.51,0,.98.13,1.4.4.42.26.76.62,1.01,1.06.25.45.38.94.38,1.48,0,.4-.07.78-.22,1.14-.14.35-.34.66-.6.93-.25.27-.55.48-.89.63s-.7.23-1.08.23ZM340.49,66.64c.38,0,.72-.1,1.02-.3s.54-.46.72-.79c.18-.33.26-.68.26-1.06s-.09-.75-.27-1.08c-.18-.33-.42-.59-.72-.79-.3-.2-.64-.29-1.02-.29s-.72.1-1.02.3-.54.46-.72.79c-.18.33-.26.69-.26,1.08s.09.76.27,1.09c.18.33.43.58.73.77s.64.29,1,.29Z"/>
        <path class="cls-2" d="M348.15,65.88l.7.38c-.25.35-.57.64-.96.85-.39.21-.81.32-1.26.32-.51,0-.98-.13-1.4-.4-.42-.26-.76-.62-1.01-1.06-.25-.44-.38-.94-.38-1.47,0-.41.07-.79.22-1.14.14-.35.34-.67.6-.94.25-.27.55-.48.89-.63s.7-.23,1.08-.23c.45,0,.87.11,1.26.32.39.21.71.5.96.85l-.7.37c-.19-.25-.43-.43-.7-.57-.27-.13-.55-.2-.83-.2-.38,0-.72.1-1.02.3-.3.2-.55.46-.72.79-.18.33-.26.69-.26,1.08s.09.75.27,1.08c.18.33.42.59.73.78.3.2.64.29,1.01.29.3,0,.59-.07.86-.21s.49-.33.67-.55Z"/>
        <path class="cls-2" d="M354.35,61.7h.78v5.57h-.78l-.03-1.04c-.18.35-.44.64-.76.85-.33.22-.72.33-1.17.33-.41,0-.79-.08-1.15-.23-.36-.15-.67-.37-.94-.64-.27-.27-.48-.58-.63-.94-.15-.36-.23-.74-.23-1.15s.08-.78.23-1.13c.15-.35.36-.66.62-.93s.57-.48.92-.63c.35-.15.73-.23,1.13-.23.46,0,.87.11,1.21.33.35.22.62.51.82.87l-.03-1.04ZM352.38,66.66c.4,0,.74-.1,1.02-.29s.51-.46.66-.79.23-.69.23-1.09-.08-.78-.23-1.11c-.16-.33-.38-.59-.66-.78-.29-.19-.63-.29-1.02-.29s-.75.1-1.08.29c-.33.2-.58.46-.77.79s-.29.7-.29,1.1.1.77.29,1.1c.2.33.46.59.78.78.33.19.68.29,1.06.29Z"/>
        <path class="cls-2" d="M360.12,65.88l.7.38c-.25.35-.57.64-.96.85-.39.21-.81.32-1.26.32-.51,0-.98-.13-1.4-.4-.42-.26-.76-.62-1.01-1.06-.25-.44-.38-.94-.38-1.47,0-.41.07-.79.22-1.14.14-.35.34-.67.6-.94.25-.27.55-.48.89-.63s.7-.23,1.08-.23c.45,0,.87.11,1.26.32.39.21.71.5.96.85l-.7.37c-.19-.25-.43-.43-.7-.57-.27-.13-.55-.2-.83-.2-.38,0-.72.1-1.02.3-.3.2-.55.46-.72.79-.18.33-.26.69-.26,1.08s.09.75.27,1.08c.18.33.42.59.73.78.3.2.64.29,1.01.29.3,0,.59-.07.86-.21s.49-.33.67-.55Z"/>
        <path class="cls-2" d="M362.12,60.73c-.13,0-.23-.04-.32-.13-.09-.08-.13-.19-.13-.31s.04-.23.13-.31c.09-.08.19-.13.32-.13s.23.04.31.13c.09.08.13.19.13.31s-.04.23-.13.31c-.09.08-.19.13-.32.13ZM361.72,61.7h.78v5.57h-.78v-5.57Z"/>
        <path class="cls-2" d="M368.36,61.7h.78v5.57h-.78l-.03-1.04c-.18.35-.44.64-.76.85-.33.22-.72.33-1.17.33-.41,0-.79-.08-1.15-.23-.36-.15-.67-.37-.94-.64-.27-.27-.48-.58-.63-.94-.15-.36-.23-.74-.23-1.15s.08-.78.23-1.13c.15-.35.36-.66.62-.93s.57-.48.92-.63c.35-.15.73-.23,1.13-.23.46,0,.87.11,1.21.33.35.22.62.51.82.87l-.03-1.04ZM366.38,66.66c.4,0,.74-.1,1.02-.29s.51-.46.66-.79.23-.69.23-1.09-.08-.78-.23-1.11c-.16-.33-.38-.59-.66-.78-.29-.19-.63-.29-1.02-.29s-.75.1-1.08.29c-.33.2-.58.46-.77.79s-.29.7-.29,1.1.1.77.29,1.1c.2.33.46.59.78.78.33.19.68.29,1.06.29Z"/>
      </g>
    </g>
  </g>
</svg>