<?xml version="1.0" standalone="no"?>
<!DOCTYPE svg PUBLIC "-//W3C//DTD SVG 1.1//EN" "http://www.w3.org/Graphics/SVG/1.1/DTD/svg11.dtd">
<svg xmlns="http://www.w3.org/2000/svg" id="Camada_2" data-name="Camada 2" viewBox="0 0 121.46 103.27" width="121.45999908447266" height="103.2699966430664">
  <defs>
    <style>
      .cls-1 {
        fill: #0b1e47;
      }
    </style>
  </defs>
  <g id="Camada_1-2" data-name="Camada 1">
    <g>
      <rect class="cls-1" y="99.11" width="32.87" height="4.16"/>
      <rect class="cls-1" x="73.98" width="32.87" height="4.16"/>
      <path class="cls-1" d="M74.12,19.95c-.2-.04-.38-.1-.58-.14-1.21-.25-2.45-.39-3.69-.54-.93-.1-1.88-.21-2.81-.31-.43-.04-.94-.04-1.44-.07,4.28,6.06,6.43,14.12,6.43,24.19,0,12.82-3.33,22.76-9.99,29.83-6.66,7.07-15.93,10.61-27.83,10.61H7.52V5.65h26.71c12.4,0,21.8,3.16,28.2,9.49,1.07,1.05,2.04,2.2,2.93,3.42,2.34-.56,4.78-.89,7.19-1.1-1.49-2.13-3.22-4.07-5.19-5.81C59.25,4.49,47.33.91,31.61.91H.03v87.37h32.32c9.82,0,18.26-1.79,25.33-5.37,7.07-3.58,12.48-8.76,16.22-15.53,3.75-6.78,5.61-14.87,5.61-24.27s-1.81-16.9-5.4-23.14h0Z"/>
      <path class="cls-1" d="M109.6,24.31c-7.91-7.82-18.93-11.73-33.07-11.73s-25.17,3.92-33.07,11.73c-7.91,7.82-11.86,18.76-11.86,32.82,0,10.23,2.02,18.83,6.04,25.8.52-.2,1.08-.36,1.54-.54.91-.37,1.82-.74,2.72-1.11.76-.31,1.52-.65,2.27-.99-3.38-6.26-5.08-13.97-5.08-23.16,0-12.65,3.29-22.45,9.86-29.39,6.57-6.95,15.76-10.42,27.58-10.42s21.01,3.47,27.58,10.42c6.57,6.95,9.86,16.75,9.86,29.39s-3.29,22.78-9.86,29.89c-6.57,7.12-15.77,10.67-27.58,10.67s-21.01-3.56-27.58-10.67c-1.4-1.51-2.64-3.16-3.74-4.93-2.43.53-4.92.95-7.39,1.16,1.56,2.66,3.41,5.09,5.57,7.27,7.86,7.95,18.9,11.92,33.14,11.92s25.27-3.97,33.14-11.92c7.86-7.94,11.8-19.07,11.8-33.39s-3.95-25-11.86-32.82h0Z"/>
    </g>
  </g>
</svg>