<?xml version="1.0" standalone="no"?>
<!DOCTYPE svg PUBLIC "-//W3C//DTD SVG 1.1//EN" "http://www.w3.org/Graphics/SVG/1.1/DTD/svg11.dtd">
<svg xmlns="http://www.w3.org/2000/svg" id="Camada_2" data-name="Camada 2" viewBox="0 0 393.98 78.63" width="393.9800109863281" height="78.62999725341797">
  <defs>
    <style>
      .cls-1 {
        fill: #0b1e47;
      }
    </style>
  </defs>
  <g id="Camada_1-2" data-name="Camada 1">
    <g>
      <g>
        <rect class="cls-1" y="75.47" width="25.03" height="3.17"/>
        <rect class="cls-1" x="56.33" width="25.03" height="3.17"/>
        <path class="cls-1" d="M56.44,15.19c-.15-.03-.29-.08-.44-.11-.92-.19-1.87-.3-2.81-.41-.71-.08-1.43-.16-2.14-.23-.33-.03-.72-.03-1.09-.05,3.26,4.62,4.9,10.75,4.9,18.42,0,9.76-2.53,17.33-7.6,22.71-5.07,5.39-12.13,8.08-21.19,8.08H5.72V4.3h20.34c9.44,0,16.6,2.41,21.48,7.22.81.8,1.55,1.67,2.23,2.61,1.78-.43,3.64-.68,5.48-.84-1.14-1.62-2.45-3.1-3.95-4.42C45.12,3.42,36.04.69,24.07.69H.03v66.52h24.61c7.48,0,13.9-1.36,19.29-4.09,5.39-2.72,9.5-6.67,12.35-11.83,2.85-5.16,4.27-11.32,4.27-18.48s-1.38-12.87-4.11-17.62h0Z"/>
        <path class="cls-1" d="M83.45,18.51c-6.02-5.96-14.41-8.93-25.18-8.93s-19.17,2.98-25.18,8.93c-6.02,5.96-9.03,14.28-9.03,24.99,0,7.79,1.54,14.34,4.6,19.65.39-.15.82-.27,1.17-.41.69-.28,1.38-.56,2.07-.85.58-.24,1.16-.49,1.73-.75-2.57-4.77-3.87-10.64-3.87-17.63,0-9.63,2.5-17.09,7.51-22.38s12-7.93,21-7.93,16,2.64,21,7.93c5.01,5.29,7.51,12.75,7.51,22.38s-2.5,17.34-7.51,22.76c-5.01,5.42-12.01,8.12-21,8.12s-16-2.71-21-8.12c-1.07-1.15-2.01-2.41-2.85-3.76-1.85.4-3.74.72-5.63.88,1.19,2.02,2.6,3.87,4.24,5.54,5.99,6.05,14.39,9.07,25.23,9.07s19.24-3.03,25.23-9.07c5.99-6.05,8.98-14.52,8.98-25.42s-3.01-19.04-9.03-24.99h0Z"/>
      </g>
      <g>
        <path class="cls-1" d="M119.27,56.46v-32h10.58c2.21,0,4.28.42,6.22,1.25,1.93.83,3.63,1.98,5.1,3.45,1.46,1.47,2.61,3.17,3.44,5.1.83,1.93,1.25,4,1.25,6.2s-.42,4.28-1.25,6.2c-.83,1.93-1.98,3.63-3.44,5.1-1.46,1.47-3.16,2.62-5.1,3.45-1.94.83-4.01,1.25-6.22,1.25h-10.58ZM121.74,53.99h8.11c1.87,0,3.63-.35,5.26-1.05,1.63-.7,3.07-1.67,4.31-2.91,1.24-1.24,2.21-2.68,2.91-4.31.7-1.63,1.05-3.38,1.05-5.26s-.35-3.63-1.05-5.26c-.7-1.63-1.68-3.07-2.93-4.31-1.25-1.24-2.69-2.21-4.32-2.91-1.63-.7-3.37-1.05-5.23-1.05h-8.11v27.06Z"/>
        <path class="cls-1" d="M149.92,56.46v-22.85h2.47v3.5c.82-1.26,1.91-2.27,3.27-3.02,1.36-.75,2.83-1.12,4.43-1.12.9,0,1.76.11,2.58.34l-1.03,2.42c-.66-.18-1.3-.27-1.92-.27-1.34,0-2.57.33-3.68.98-1.11.66-2,1.54-2.66,2.65-.66,1.11-.99,2.35-.99,3.7v13.67h-2.47Z"/>
        <path class="cls-1" d="M166.94,29.28c-.43,0-.79-.14-1.09-.42-.3-.28-.45-.64-.45-1.06s.15-.78.45-1.06c.3-.28.66-.42,1.09-.42s.77.14,1.06.42c.3.28.45.64.45,1.06s-.15.78-.43,1.06c-.29.28-.65.42-1.07.42ZM165.69,33.6h2.47v22.85h-2.47v-22.85Z"/>
        <path class="cls-1" d="M183.56,57.05c-2.1,0-4.02-.54-5.75-1.62-1.73-1.08-3.11-2.53-4.14-4.35-1.03-1.82-1.54-3.84-1.54-6.04,0-1.68.3-3.24.89-4.7.59-1.45,1.41-2.73,2.46-3.84,1.04-1.1,2.26-1.97,3.65-2.59,1.39-.62,2.86-.94,4.43-.94,1.66,0,3.2.32,4.61.97,1.41.65,2.62,1.56,3.64,2.73,1.02,1.17,1.81,2.56,2.35,4.15.55,1.59.8,3.33.75,5.22h-20.2c.17,1.63.66,3.09,1.47,4.38.81,1.29,1.86,2.3,3.14,3.04,1.28.74,2.69,1.12,4.23,1.13,1.69,0,3.21-.45,4.57-1.34,1.36-.89,2.45-2.11,3.27-3.67l2.49.57c-.91,2.03-2.29,3.68-4.14,4.97-1.84,1.29-3.91,1.93-6.19,1.93ZM174.65,43.93h17.78c-.09-1.57-.54-3.01-1.36-4.33-.81-1.32-1.88-2.37-3.19-3.17-1.31-.79-2.75-1.19-4.32-1.19s-3,.39-4.3,1.17c-1.3.78-2.35,1.82-3.17,3.14-.82,1.32-1.3,2.78-1.45,4.38Z"/>
        <path class="cls-1" d="M198.8,56.46V22.18h2.47v34.28h-2.47Z"/>
        <path class="cls-1" d="M206.76,56.46V22.18h2.47v34.28h-2.47Z"/>
        <path class="cls-1" d="M224.67,57.05c-2.1,0-4.02-.54-5.75-1.62-1.73-1.08-3.11-2.53-4.14-4.35-1.03-1.82-1.54-3.84-1.54-6.04,0-1.68.3-3.24.89-4.7.59-1.45,1.41-2.73,2.46-3.84,1.04-1.1,2.26-1.97,3.64-2.59s2.86-.94,4.43-.94c1.66,0,3.2.32,4.61.97,1.41.65,2.62,1.56,3.64,2.73,1.02,1.17,1.81,2.56,2.35,4.15.55,1.59.8,3.33.75,5.22h-20.2c.17,1.63.66,3.09,1.47,4.38.81,1.29,1.86,2.3,3.14,3.04,1.28.74,2.69,1.12,4.23,1.13,1.69,0,3.21-.45,4.57-1.34s2.45-2.11,3.27-3.67l2.49.57c-.91,2.03-2.29,3.68-4.14,4.97-1.84,1.29-3.91,1.93-6.19,1.93ZM215.76,43.93h17.78c-.09-1.57-.54-3.01-1.36-4.33-.82-1.32-1.88-2.37-3.19-3.17-1.31-.79-2.75-1.19-4.32-1.19s-3,.39-4.3,1.17c-1.29.78-2.35,1.82-3.16,3.14-.82,1.32-1.3,2.78-1.45,4.38Z"/>
        <path class="cls-1" d="M265.97,57.05c-2.16,0-4.2-.43-6.1-1.29-1.9-.86-3.58-2.05-5.03-3.58-1.45-1.52-2.58-3.29-3.41-5.29-.82-2-1.23-4.15-1.23-6.43s.41-4.43,1.23-6.43,1.96-3.77,3.41-5.29c1.45-1.52,3.12-2.72,5.03-3.58,1.9-.86,3.94-1.29,6.1-1.29s4.22.43,6.12,1.29c1.9.86,3.58,2.05,5.03,3.58,1.45,1.52,2.58,3.29,3.39,5.29s1.22,4.15,1.22,6.43-.41,4.43-1.22,6.43c-.81,2-1.95,3.77-3.39,5.29-1.45,1.52-3.12,2.72-5.03,3.58-1.9.86-3.95,1.29-6.12,1.29ZM265.97,54.58c1.86,0,3.59-.37,5.2-1.12,1.61-.75,3.02-1.77,4.23-3.07,1.21-1.3,2.16-2.81,2.85-4.51.69-1.71,1.03-3.51,1.03-5.42s-.35-3.76-1.04-5.46c-.69-1.71-1.65-3.21-2.87-4.5-1.22-1.29-2.63-2.31-4.23-3.05-1.6-.74-3.32-1.11-5.17-1.11s-3.59.37-5.2,1.12c-1.61.75-3.02,1.77-4.23,3.07-1.21,1.3-2.16,2.81-2.84,4.51-.69,1.71-1.03,3.51-1.03,5.42s.35,3.76,1.04,5.46c.69,1.71,1.65,3.21,2.87,4.51,1.22,1.3,2.63,2.32,4.24,3.05,1.61.73,3.33,1.1,5.15,1.1Z"/>
        <path class="cls-1" d="M286.54,56.46V22.18h2.47v34.28h-2.47Z"/>
        <path class="cls-1" d="M295.75,29.28c-.43,0-.79-.14-1.09-.42-.3-.28-.45-.64-.45-1.06s.15-.78.45-1.06c.3-.28.66-.42,1.09-.42s.77.14,1.06.42c.3.28.45.64.45,1.06s-.15.78-.43,1.06c-.29.28-.65.42-1.07.42ZM294.49,33.6h2.47v22.85h-2.47v-22.85Z"/>
        <path class="cls-1" d="M312.34,56.46h-3.11l-8.34-22.92h2.63l7.27,20,7.27-20h2.63l-8.34,22.92Z"/>
        <path class="cls-1" d="M333.75,57.05c-2.1,0-4.02-.54-5.75-1.62-1.73-1.08-3.11-2.53-4.14-4.35-1.03-1.82-1.54-3.84-1.54-6.04,0-1.68.3-3.24.89-4.7.59-1.45,1.41-2.73,2.46-3.84,1.04-1.1,2.26-1.97,3.65-2.59,1.39-.62,2.86-.94,4.43-.94,1.66,0,3.2.32,4.6.97s2.62,1.56,3.65,2.73c1.02,1.17,1.81,2.56,2.35,4.15.55,1.59.8,3.33.75,5.22h-20.2c.17,1.63.66,3.09,1.47,4.38.81,1.29,1.86,2.3,3.14,3.04,1.28.74,2.69,1.12,4.23,1.13,1.69,0,3.21-.45,4.57-1.34,1.36-.89,2.45-2.11,3.27-3.67l2.49.57c-.91,2.03-2.29,3.68-4.14,4.97-1.84,1.29-3.91,1.93-6.19,1.93ZM324.84,43.93h17.78c-.09-1.57-.55-3.01-1.36-4.33-.81-1.32-1.88-2.37-3.19-3.17-1.31-.79-2.75-1.19-4.32-1.19s-3,.39-4.3,1.17c-1.3.78-2.35,1.82-3.17,3.14-.81,1.32-1.3,2.78-1.45,4.38Z"/>
        <path class="cls-1" d="M350.21,29.28c-.43,0-.79-.14-1.09-.42-.3-.28-.45-.64-.45-1.06s.15-.78.45-1.06c.3-.28.66-.42,1.09-.42s.77.14,1.06.42c.3.28.45.64.45,1.06s-.15.78-.43,1.06c-.29.28-.65.42-1.07.42ZM348.95,33.6h2.47v22.85h-2.47v-22.85Z"/>
        <path class="cls-1" d="M356.86,56.46v-22.85h2.47v3.5c.82-1.26,1.91-2.27,3.27-3.02,1.36-.75,2.83-1.12,4.43-1.12.9,0,1.76.11,2.58.34l-1.03,2.42c-.66-.18-1.3-.27-1.92-.27-1.34,0-2.57.33-3.68.98-1.11.66-2,1.54-2.66,2.65-.66,1.11-.99,2.35-.99,3.7v13.67h-2.47Z"/>
        <path class="cls-1" d="M390.61,33.6h2.47v22.85h-2.47l-.07-4.69c-.78,1.58-1.89,2.86-3.33,3.83s-3.16,1.45-5.18,1.45c-1.66,0-3.22-.32-4.67-.95s-2.74-1.5-3.85-2.61c-1.11-1.1-1.98-2.38-2.61-3.84-.62-1.45-.94-3.02-.94-4.7s.31-3.21.93-4.66c.62-1.45,1.47-2.72,2.57-3.83,1.1-1.1,2.37-1.97,3.82-2.58,1.45-.62,2.99-.93,4.64-.93,2.03,0,3.78.49,5.27,1.47s2.65,2.27,3.49,3.85l-.07-4.68ZM382.02,54.63c1.75,0,3.26-.43,4.51-1.29,1.26-.86,2.22-2.02,2.89-3.49.67-1.46,1.01-3.07,1.01-4.82s-.34-3.42-1.02-4.88c-.68-1.45-1.65-2.61-2.9-3.47-1.26-.86-2.75-1.29-4.49-1.29s-3.37.43-4.81,1.3c-1.44.87-2.59,2.03-3.44,3.5-.85,1.46-1.28,3.08-1.28,4.85s.44,3.42,1.31,4.87c.88,1.45,2.04,2.6,3.49,3.45,1.45.85,3.02,1.28,4.73,1.28Z"/>
      </g>
      <g>
        <path class="cls-1" d="M216.06,71.96c-.44,0-.87-.07-1.29-.21s-.78-.34-1.08-.59c-.31-.26-.53-.57-.65-.92l.78-.29c.09.25.25.46.48.63.23.18.5.31.81.41.31.09.63.14.95.14.38,0,.74-.06,1.06-.19s.59-.3.8-.53c.2-.23.3-.5.3-.81s-.1-.57-.32-.77c-.21-.2-.48-.36-.81-.48s-.68-.21-1.04-.27c-.57-.1-1.08-.23-1.53-.4-.45-.17-.81-.41-1.07-.72s-.39-.72-.39-1.23c0-.48.14-.9.42-1.25s.64-.63,1.1-.82.94-.29,1.47-.29c.43,0,.85.07,1.27.2.41.14.78.33,1.09.59s.54.57.68.95l-.79.29c-.09-.25-.25-.46-.48-.64-.23-.18-.5-.31-.81-.4-.31-.09-.63-.14-.96-.14-.38,0-.73.06-1.06.19s-.59.31-.79.54c-.2.23-.3.49-.3.8,0,.36.09.63.28.82s.45.34.77.43c.32.1.69.18,1.1.26.53.09,1.02.23,1.48.42.46.19.82.45,1.1.77s.42.71.42,1.18-.14.89-.42,1.25-.64.63-1.1.82-.95.29-1.48.29Z"/>
        <path class="cls-1" d="M222.95,71.96c-.55,0-1.05-.14-1.5-.42-.45-.28-.81-.66-1.08-1.13s-.4-1-.4-1.57c0-.44.08-.84.23-1.22.15-.38.37-.71.64-1s.59-.51.95-.67c.36-.16.75-.24,1.15-.24.55,0,1.04.14,1.5.42.45.28.81.66,1.08,1.13.27.48.4,1,.4,1.58,0,.43-.08.84-.23,1.21-.15.38-.37.71-.64,1s-.59.51-.95.67c-.36.16-.74.24-1.16.24ZM222.95,71.13c.4,0,.77-.11,1.09-.32.32-.21.58-.49.77-.84s.28-.73.28-1.14-.09-.8-.29-1.15-.45-.63-.77-.84c-.32-.21-.69-.31-1.08-.31s-.77.11-1.09.32c-.32.21-.58.49-.77.84s-.28.73-.28,1.15.1.82.29,1.16c.19.35.45.62.78.83.32.2.68.31,1.07.31Z"/>
        <path class="cls-1" d="M231.11,70.31l.74.4c-.27.38-.61.68-1.03.9-.42.23-.86.34-1.35.34-.55,0-1.05-.14-1.5-.42-.45-.28-.81-.66-1.08-1.13s-.4-1-.4-1.57c0-.44.08-.84.23-1.22.15-.38.37-.71.64-1s.59-.51.95-.67c.36-.16.75-.24,1.15-.24.48,0,.93.11,1.35.34.41.23.76.53,1.03.91l-.74.4c-.21-.26-.45-.46-.74-.6-.29-.14-.58-.21-.89-.21-.4,0-.76.11-1.09.32-.32.21-.58.49-.77.84s-.28.73-.28,1.15.1.8.29,1.15.45.63.78.84c.32.21.68.31,1.08.31.32,0,.63-.08.92-.23s.52-.35.71-.59Z"/>
        <path class="cls-1" d="M233.25,64.82c-.13,0-.25-.04-.34-.13-.09-.09-.14-.2-.14-.34s.05-.25.14-.34c.09-.09.21-.13.34-.13s.24.04.34.13c.09.09.14.2.14.34s-.05.25-.14.34c-.09.09-.2.13-.34.13ZM232.83,65.86h.83v5.95h-.83v-5.95Z"/>
        <path class="cls-1" d="M237.64,71.96c-.55,0-1.05-.14-1.5-.42-.45-.28-.81-.66-1.08-1.13s-.4-1-.4-1.57c0-.44.08-.84.23-1.22.15-.38.37-.71.64-1s.59-.51.95-.67c.36-.16.75-.24,1.15-.24.44,0,.84.09,1.22.26.37.17.69.42.96.73s.47.68.61,1.1c.14.42.19.87.17,1.36h-5.04c.05.38.17.71.36,1.01.19.3.44.53.74.7.3.17.63.26,1,.26.4,0,.75-.1,1.07-.31.32-.21.58-.49.77-.85l.84.2c-.24.53-.6.96-1.08,1.29-.48.33-1.02.5-1.61.5ZM235.53,68.47h4.23c-.03-.37-.14-.71-.34-1.01-.2-.31-.45-.55-.76-.74-.31-.18-.65-.28-1.02-.28s-.71.09-1.01.27c-.31.18-.56.42-.75.73-.19.31-.31.65-.36,1.03Z"/>
        <path class="cls-1" d="M246.44,62.88h.83v8.92h-.83v-1.11c-.21.38-.49.69-.85.92-.36.23-.78.35-1.28.35-.43,0-.84-.08-1.21-.24-.38-.16-.71-.39-1-.67s-.51-.62-.67-1c-.16-.38-.24-.78-.24-1.21s.08-.84.24-1.22c.16-.38.39-.71.67-1s.62-.51,1-.67c.38-.16.78-.24,1.21-.24.49,0,.92.12,1.28.35.36.23.64.54.85.91v-4.07ZM244.33,71.15c.42,0,.79-.1,1.09-.31.31-.21.54-.49.71-.84.16-.35.25-.74.25-1.17s-.08-.83-.25-1.18c-.17-.35-.4-.63-.71-.83-.3-.21-.67-.31-1.09-.31s-.8.1-1.15.31-.62.49-.83.84c-.21.35-.31.74-.31,1.17s.1.82.32,1.17c.21.35.49.63.83.84s.72.31,1.13.31Z"/>
        <path class="cls-1" d="M253.55,65.86h.83v5.95h-.83l-.03-1.11c-.19.38-.47.68-.81.91-.35.23-.77.35-1.25.35-.44,0-.84-.08-1.22-.25-.38-.17-.72-.39-1-.68-.29-.29-.52-.62-.68-1-.16-.38-.24-.79-.24-1.22s.08-.83.24-1.21c.16-.38.38-.71.67-.99s.61-.51.99-.67c.37-.16.78-.24,1.2-.24.5,0,.93.12,1.3.35.37.24.66.54.88.92l-.03-1.11ZM251.44,71.15c.42,0,.79-.1,1.09-.31.31-.21.54-.49.71-.84.16-.35.25-.74.25-1.17s-.08-.83-.25-1.18c-.17-.35-.4-.63-.71-.83-.3-.21-.67-.31-1.09-.31s-.8.1-1.15.31-.62.49-.83.84c-.21.35-.31.74-.31,1.17s.1.82.32,1.17c.21.35.49.63.83.84s.72.31,1.13.31Z"/>
        <path class="cls-1" d="M260.34,62.88h.83v8.92h-.83v-1.11c-.21.38-.49.69-.85.92-.36.23-.78.35-1.28.35-.43,0-.84-.08-1.21-.24-.38-.16-.71-.39-1-.67s-.51-.62-.67-1c-.16-.38-.24-.78-.24-1.21s.08-.84.24-1.22c.16-.38.39-.71.67-1s.62-.51,1-.67c.38-.16.78-.24,1.21-.24.49,0,.92.12,1.28.35.36.23.64.54.85.91v-4.07ZM258.23,71.15c.42,0,.79-.1,1.09-.31.31-.21.54-.49.71-.84.16-.35.25-.74.25-1.17s-.08-.83-.25-1.18c-.17-.35-.4-.63-.71-.83-.3-.21-.67-.31-1.09-.31s-.8.1-1.15.31-.62.49-.83.84c-.21.35-.31.74-.31,1.17s.1.82.32,1.17c.21.35.49.63.83.84s.72.31,1.13.31Z"/>
        <path class="cls-1" d="M265.18,71.96c-.55,0-1.05-.14-1.5-.42-.45-.28-.81-.66-1.08-1.13s-.4-1-.4-1.57c0-.44.08-.84.23-1.22.15-.38.37-.71.64-1s.59-.51.95-.67c.36-.16.75-.24,1.15-.24.44,0,.84.09,1.22.26.37.17.69.42.96.73s.47.68.61,1.1c.14.42.19.87.17,1.36h-5.04c.05.38.17.71.36,1.01.19.3.44.53.74.7.3.17.63.26,1,.26.4,0,.75-.1,1.07-.31.32-.21.58-.49.77-.85l.84.2c-.24.53-.6.96-1.08,1.29-.48.33-1.02.5-1.61.5ZM263.06,68.47h4.23c-.03-.37-.14-.71-.34-1.01-.2-.31-.45-.55-.76-.74-.31-.18-.65-.28-1.02-.28s-.71.09-1.01.27c-.31.18-.56.42-.75.73-.19.31-.31.65-.36,1.03Z"/>
        <path class="cls-1" d="M272.23,71.8v-8.32h.83v8.32h-.83Z"/>
        <path class="cls-1" d="M279.86,68.12v3.68h-.83v-3.51c0-.33-.08-.62-.24-.89-.16-.27-.37-.48-.64-.64-.27-.16-.56-.24-.89-.24s-.62.08-.88.24c-.27.16-.48.37-.64.64-.16.27-.24.56-.24.89v3.51h-.83v-5.95h.83v.82c.21-.3.48-.54.82-.72.34-.18.7-.27,1.1-.27.45,0,.86.11,1.22.33.37.22.66.51.88.88.22.37.33.78.33,1.22Z"/>
        <path class="cls-1" d="M285.82,62.88h.83v8.92h-.83v-1.11c-.21.38-.49.69-.85.92-.36.23-.78.35-1.28.35-.43,0-.84-.08-1.21-.24-.38-.16-.71-.39-1-.67s-.51-.62-.67-1c-.16-.38-.24-.78-.24-1.21s.08-.84.24-1.22c.16-.38.39-.71.67-1s.62-.51,1-.67c.38-.16.78-.24,1.21-.24.49,0,.92.12,1.28.35.36.23.64.54.85.91v-4.07ZM283.7,71.15c.42,0,.79-.1,1.09-.31.31-.21.54-.49.71-.84.16-.35.25-.74.25-1.17s-.08-.83-.25-1.18c-.17-.35-.4-.63-.71-.83-.3-.21-.67-.31-1.09-.31s-.8.1-1.15.31-.62.49-.83.84c-.21.35-.31.74-.31,1.17s.1.82.32,1.17c.21.35.49.63.83.84s.72.31,1.13.31Z"/>
        <path class="cls-1" d="M288.5,64.82c-.13,0-.25-.04-.34-.13-.09-.09-.14-.2-.14-.34s.05-.25.14-.34c.09-.09.21-.13.34-.13s.24.04.34.13c.09.09.14.2.14.34s-.05.25-.14.34c-.09.09-.2.13-.34.13ZM288.08,65.86h.83v5.95h-.83v-5.95Z"/>
        <path class="cls-1" d="M293.13,71.8h-1.06l-2.17-5.96h.89l1.81,4.99,1.81-4.99h.89l-2.17,5.96Z"/>
        <path class="cls-1" d="M296.72,64.82c-.13,0-.25-.04-.34-.13-.09-.09-.14-.2-.14-.34s.05-.25.14-.34c.09-.09.21-.13.34-.13s.24.04.34.13c.09.09.14.2.14.34s-.05.25-.14.34c-.09.09-.2.13-.34.13ZM296.3,65.86h.83v5.95h-.83v-5.95Z"/>
        <path class="cls-1" d="M303.39,62.88h.83v8.92h-.83v-1.11c-.21.38-.49.69-.85.92-.36.23-.78.35-1.28.35-.43,0-.84-.08-1.21-.24-.38-.16-.71-.39-1-.67s-.51-.62-.67-1c-.16-.38-.24-.78-.24-1.21s.08-.84.24-1.22c.16-.38.39-.71.67-1s.62-.51,1-.67c.38-.16.78-.24,1.21-.24.49,0,.92.12,1.28.35.36.23.64.54.85.91v-4.07ZM301.27,71.15c.42,0,.79-.1,1.09-.31.31-.21.54-.49.71-.84.16-.35.25-.74.25-1.17s-.08-.83-.25-1.18c-.17-.35-.4-.63-.71-.83-.3-.21-.67-.31-1.09-.31s-.8.1-1.15.31-.62.49-.83.84c-.21.35-.31.74-.31,1.17s.1.82.32,1.17c.21.35.49.63.83.84s.72.31,1.13.31Z"/>
        <path class="cls-1" d="M305.41,69.53v-3.67h.83v3.5c0,.33.08.62.24.89s.37.48.64.64c.27.16.56.24.88.24s.62-.08.88-.24c.26-.16.47-.37.63-.64.16-.27.24-.56.24-.89v-3.5h.83v5.95s-.83,0-.83,0v-.83c-.22.3-.49.54-.82.72-.33.18-.7.27-1.1.27-.45,0-.86-.11-1.22-.33-.37-.22-.66-.51-.88-.88-.22-.37-.33-.78-.33-1.23Z"/>
        <path class="cls-1" d="M316.63,65.86h.83v5.95h-.83l-.03-1.11c-.19.38-.47.68-.81.91-.35.23-.77.35-1.25.35-.44,0-.84-.08-1.22-.25-.38-.17-.72-.39-1-.68-.29-.29-.52-.62-.68-1-.16-.38-.24-.79-.24-1.22s.08-.83.24-1.21c.16-.38.38-.71.67-.99s.61-.51.99-.67c.37-.16.78-.24,1.2-.24.5,0,.93.12,1.3.35.37.24.66.54.88.92l-.03-1.11ZM314.52,71.15c.42,0,.79-.1,1.09-.31.31-.21.54-.49.71-.84.16-.35.25-.74.25-1.17s-.08-.83-.25-1.18c-.17-.35-.4-.63-.71-.83-.3-.21-.67-.31-1.09-.31s-.8.1-1.15.31-.62.49-.83.84c-.21.35-.31.74-.31,1.17s.1.82.32,1.17c.21.35.49.63.83.84s.72.31,1.13.31Z"/>
        <path class="cls-1" d="M318.73,71.8v-8.92h.83v8.92h-.83Z"/>
        <path class="cls-1" d="M328.74,62.88h.83v8.92h-.83v-1.11c-.21.38-.49.69-.85.92-.36.23-.78.35-1.28.35-.43,0-.84-.08-1.21-.24-.38-.16-.71-.39-1-.67s-.51-.62-.67-1c-.16-.38-.24-.78-.24-1.21s.08-.84.24-1.22c.16-.38.39-.71.67-1s.62-.51,1-.67c.38-.16.78-.24,1.21-.24.49,0,.92.12,1.28.35.36.23.64.54.85.91v-4.07ZM326.62,71.15c.42,0,.79-.1,1.09-.31.31-.21.54-.49.71-.84.16-.35.25-.74.25-1.17s-.08-.83-.25-1.18c-.17-.35-.4-.63-.71-.83-.3-.21-.67-.31-1.09-.31s-.8.1-1.15.31-.62.49-.83.84c-.21.35-.31.74-.31,1.17s.1.82.32,1.17c.21.35.49.63.83.84s.72.31,1.13.31Z"/>
        <path class="cls-1" d="M333.57,71.96c-.55,0-1.05-.14-1.5-.42-.45-.28-.81-.66-1.08-1.13s-.4-1-.4-1.57c0-.44.08-.84.23-1.22.15-.38.37-.71.64-1s.59-.51.95-.67c.36-.16.75-.24,1.15-.24.44,0,.84.09,1.22.26.37.17.69.42.96.73s.47.68.61,1.1c.14.42.19.87.17,1.36h-5.04c.05.38.17.71.36,1.01.19.3.44.53.74.7.3.17.63.26,1,.26.4,0,.75-.1,1.07-.31.32-.21.58-.49.77-.85l.84.2c-.24.53-.6.96-1.08,1.29-.48.33-1.02.5-1.61.5ZM331.45,68.47h4.23c-.03-.37-.14-.71-.34-1.01-.2-.31-.45-.55-.76-.74-.31-.18-.65-.28-1.02-.28s-.71.09-1.01.27c-.31.18-.56.42-.75.73-.19.31-.31.65-.36,1.03Z"/>
        <path class="cls-1" d="M343.24,63.48h1.04l3.03,8.32h-.89l-.65-1.78h-4.03l-.65,1.78h-.89l3.03-8.32ZM342.05,69.19h3.41l-1.71-4.68-1.71,4.68Z"/>
        <path class="cls-1" d="M352.79,62.88h.83v8.92h-.83v-1.11c-.21.38-.49.69-.85.92-.36.23-.78.35-1.28.35-.43,0-.84-.08-1.21-.24-.38-.16-.71-.39-1-.67s-.51-.62-.67-1c-.16-.38-.24-.78-.24-1.21s.08-.84.24-1.22c.16-.38.39-.71.67-1s.62-.51,1-.67c.38-.16.78-.24,1.21-.24.49,0,.92.12,1.28.35.36.23.64.54.85.91v-4.07ZM350.68,71.15c.42,0,.79-.1,1.09-.31.31-.21.54-.49.71-.84.16-.35.25-.74.25-1.17s-.08-.83-.25-1.18c-.17-.35-.4-.63-.71-.83-.3-.21-.67-.31-1.09-.31s-.8.1-1.15.31-.62.49-.83.84c-.21.35-.31.74-.31,1.17s.1.82.32,1.17c.21.35.49.63.83.84s.72.31,1.13.31Z"/>
        <path class="cls-1" d="M357.87,71.8h-1.06l-2.17-5.96h.89l1.81,4.99,1.81-4.99h.89l-2.17,5.96Z"/>
        <path class="cls-1" d="M363.41,71.96c-.55,0-1.05-.14-1.5-.42-.45-.28-.81-.66-1.08-1.13s-.4-1-.4-1.57c0-.44.08-.84.23-1.22.15-.38.37-.71.64-1s.59-.51.95-.67c.36-.16.75-.24,1.15-.24.55,0,1.04.14,1.5.42.45.28.81.66,1.08,1.13.27.48.4,1,.4,1.58,0,.43-.08.84-.23,1.21-.15.38-.37.71-.64,1s-.59.51-.95.67c-.36.16-.74.24-1.16.24ZM363.41,71.13c.4,0,.77-.11,1.09-.32.32-.21.58-.49.77-.84s.28-.73.28-1.14-.09-.8-.29-1.15-.45-.63-.77-.84c-.32-.21-.69-.31-1.08-.31s-.77.11-1.09.32c-.32.21-.58.49-.77.84s-.28.73-.28,1.15.1.82.29,1.16c.19.35.45.62.78.83.32.2.68.31,1.07.31Z"/>
        <path class="cls-1" d="M371.58,70.31l.74.4c-.27.38-.61.68-1.03.9-.42.23-.86.34-1.35.34-.55,0-1.05-.14-1.5-.42-.45-.28-.81-.66-1.08-1.13s-.4-1-.4-1.57c0-.44.08-.84.23-1.22.15-.38.37-.71.64-1s.59-.51.95-.67c.36-.16.75-.24,1.15-.24.48,0,.93.11,1.35.34.41.23.76.53,1.03.91l-.74.4c-.21-.26-.45-.46-.74-.6-.29-.14-.58-.21-.89-.21-.4,0-.76.11-1.09.32-.32.21-.58.49-.77.84s-.28.73-.28,1.15.1.8.29,1.15.45.63.78.84c.32.21.68.31,1.08.31.32,0,.63-.08.92-.23s.52-.35.71-.59Z"/>
        <path class="cls-1" d="M378.2,65.86h.83v5.95h-.83l-.03-1.11c-.19.38-.47.68-.81.91-.35.23-.77.35-1.25.35-.44,0-.84-.08-1.22-.25-.38-.17-.72-.39-1-.68-.29-.29-.52-.62-.68-1-.16-.38-.24-.79-.24-1.22s.08-.83.24-1.21c.16-.38.38-.71.67-.99s.61-.51.99-.67c.37-.16.78-.24,1.2-.24.5,0,.93.12,1.3.35.37.24.66.54.88.92l-.03-1.11ZM376.09,71.15c.42,0,.79-.1,1.09-.31.31-.21.54-.49.71-.84.16-.35.25-.74.25-1.17s-.08-.83-.25-1.18c-.17-.35-.4-.63-.71-.83-.3-.21-.67-.31-1.09-.31s-.8.1-1.15.31-.62.49-.83.84c-.21.35-.31.74-.31,1.17s.1.82.32,1.17c.21.35.49.63.83.84s.72.31,1.13.31Z"/>
        <path class="cls-1" d="M384.35,70.31l.74.4c-.27.38-.61.68-1.03.9-.42.23-.86.34-1.35.34-.55,0-1.05-.14-1.5-.42-.45-.28-.81-.66-1.08-1.13s-.4-1-.4-1.57c0-.44.08-.84.23-1.22.15-.38.37-.71.64-1s.59-.51.95-.67c.36-.16.75-.24,1.15-.24.48,0,.93.11,1.35.34.41.23.76.53,1.03.91l-.74.4c-.21-.26-.45-.46-.74-.6-.29-.14-.58-.21-.89-.21-.4,0-.76.11-1.09.32-.32.21-.58.49-.77.84s-.28.73-.28,1.15.1.8.29,1.15.45.63.78.84c.32.21.68.31,1.08.31.32,0,.63-.08.92-.23s.52-.35.71-.59Z"/>
        <path class="cls-1" d="M386.48,64.82c-.13,0-.25-.04-.34-.13-.09-.09-.14-.2-.14-.34s.05-.25.14-.34c.09-.09.21-.13.34-.13s.24.04.34.13c.09.09.14.2.14.34s-.05.25-.14.34c-.09.09-.2.13-.34.13ZM386.06,65.86h.83v5.95h-.83v-5.95Z"/>
        <path class="cls-1" d="M393.15,65.86h.83v5.95h-.83l-.03-1.11c-.19.38-.47.68-.81.91-.35.23-.77.35-1.25.35-.44,0-.84-.08-1.22-.25-.38-.17-.72-.39-1-.68-.29-.29-.52-.62-.68-1-.16-.38-.24-.79-.24-1.22s.08-.83.24-1.21c.16-.38.38-.71.67-.99s.61-.51.99-.67c.37-.16.78-.24,1.2-.24.5,0,.93.12,1.3.35.37.24.66.54.88.92l-.03-1.11ZM391.04,71.15c.42,0,.79-.1,1.09-.31.31-.21.54-.49.71-.84.16-.35.25-.74.25-1.17s-.08-.83-.25-1.18c-.17-.35-.4-.63-.71-.83-.3-.21-.67-.31-1.09-.31s-.8.1-1.15.31-.62.49-.83.84c-.21.35-.31.74-.31,1.17s.1.82.32,1.17c.21.35.49.63.83.84s.72.31,1.13.31Z"/>
      </g>
    </g>
  </g>
</svg>