<?xml version="1.0" standalone="no"?>
<!DOCTYPE svg PUBLIC "-//W3C//DTD SVG 1.1//EN" "http://www.w3.org/Graphics/SVG/1.1/DTD/svg11.dtd">
<svg xmlns="http://www.w3.org/2000/svg" id="Camada_2" data-name="Camada 2" viewBox="0 0 168.42 106.8" width="168.4199981689453" height="106.80000305175781">
  <defs>
    <style>
      .cls-1 {
        fill: #fff;
      }

      .cls-2 {
        fill: #eb574d;
      }
    </style>
  </defs>
  <g id="Camada_1-2" data-name="Camada 1">
    <g>
      <rect class="cls-2" x="51.25" y="53.78" width="17.84" height="2.26"/>
      <rect class="cls-2" x="91.4" width="17.84" height="2.26"/>
      <path class="cls-1" d="M91.48,10.83c-.11-.02-.21-.06-.31-.08-.66-.14-1.33-.21-2-.29-.51-.06-1.02-.12-1.53-.17-.24-.02-.51-.02-.78-.04,2.32,3.29,3.49,7.66,3.49,13.13,0,6.95-1.81,12.35-5.42,16.19-3.61,3.84-8.65,5.76-15.1,5.76h-14.49V3.06h14.49c6.73,0,11.83,1.71,15.31,5.15.58.57,1.11,1.19,1.59,1.86,1.27-.3,2.59-.48,3.9-.6-.81-1.16-1.75-2.21-2.82-3.15-4.4-3.88-10.87-5.83-19.4-5.83h-17.14v47.41h17.54c5.33,0,9.91-.97,13.75-2.91s6.77-4.75,8.8-8.43,3.05-8.07,3.05-13.17-.98-9.17-2.93-12.56h0Z"/>
      <path class="cls-1" d="M110.73,13.19c-4.29-4.24-10.27-6.36-17.95-6.36s-13.66,2.12-17.95,6.36c-4.29,4.24-6.43,10.18-6.43,17.81,0,5.55,1.1,10.22,3.28,14,.28-.11.59-.19.83-.29.49-.2.99-.4,1.47-.6.41-.17.82-.35,1.23-.53-1.83-3.4-2.76-7.58-2.76-12.57,0-6.86,1.78-12.18,5.35-15.95s8.55-5.65,14.97-5.65,11.4,1.88,14.97,5.65c3.57,3.77,5.35,9.09,5.35,15.95s-1.78,12.36-5.35,16.22c-3.57,3.86-8.56,5.79-14.97,5.79s-11.4-1.93-14.97-5.79c-.76-.82-1.43-1.71-2.03-2.68-1.32.29-2.67.52-4.01.63.85,1.44,1.85,2.76,3.02,3.95,4.27,4.31,10.26,6.47,17.98,6.47s13.72-2.16,17.98-6.47c4.27-4.31,6.4-10.35,6.4-18.12s-2.14-13.57-6.43-17.81h0Z"/>
      <g>
        <path class="cls-1" d="M0,93.42v-19.68h6.51c1.36,0,2.63.26,3.82.77,1.19.51,2.23,1.22,3.13,2.12.9.9,1.6,1.95,2.12,3.13.51,1.19.77,2.46.77,3.82s-.26,2.63-.77,3.82c-.51,1.19-1.22,2.23-2.12,3.13-.9.9-1.94,1.61-3.13,2.12-1.19.51-2.46.77-3.82.77H0ZM1.52,91.91h4.99c1.15,0,2.23-.22,3.23-.65,1-.43,1.89-1.03,2.65-1.79.76-.76,1.36-1.65,1.79-2.65.43-1,.65-2.08.65-3.23s-.22-2.23-.65-3.23c-.43-1-1.03-1.89-1.8-2.65-.77-.76-1.65-1.36-2.66-1.79-1-.43-2.08-.65-3.22-.65H1.52v16.64Z"/>
        <path class="cls-1" d="M18.85,93.42v-14.06h1.52v2.15c.51-.78,1.18-1.4,2.01-1.86.83-.46,1.74-.69,2.73-.69.55,0,1.08.07,1.59.21l-.63,1.49c-.4-.11-.8-.17-1.18-.17-.82,0-1.58.2-2.26.6-.68.4-1.23.95-1.64,1.63-.41.68-.61,1.44-.61,2.28v8.41h-1.52Z"/>
        <path class="cls-1" d="M29.32,76.71c-.26,0-.48-.09-.67-.26-.18-.17-.27-.39-.27-.65s.09-.48.27-.65c.18-.17.41-.26.67-.26s.47.09.65.26c.18.17.27.39.27.65s-.09.48-.27.65c-.18.17-.4.26-.66.26ZM28.55,79.37h1.52v14.06h-1.52v-14.06Z"/>
        <path class="cls-1" d="M39.54,93.79c-1.29,0-2.47-.33-3.54-1-1.06-.67-1.91-1.56-2.54-2.68-.63-1.12-.95-2.36-.95-3.72,0-1.03.18-1.99.55-2.89.37-.89.87-1.68,1.51-2.36.64-.68,1.39-1.21,2.24-1.6.85-.38,1.76-.58,2.73-.58,1.02,0,1.97.2,2.83.6.87.4,1.61.96,2.24,1.68.63.72,1.11,1.57,1.45,2.55.34.98.49,2.05.46,3.21h-12.43c.1,1,.41,1.9.91,2.69.5.79,1.15,1.42,1.93,1.87.79.45,1.65.69,2.6.7,1.04,0,1.98-.27,2.81-.82.83-.55,1.5-1.3,2.01-2.26l1.53.35c-.56,1.25-1.41,2.27-2.54,3.06-1.13.79-2.4,1.19-3.81,1.19ZM34.06,85.72h10.94c-.06-.97-.33-1.85-.84-2.66-.5-.81-1.16-1.46-1.96-1.95-.81-.49-1.69-.73-2.66-.73s-1.85.24-2.64.72c-.8.48-1.45,1.12-1.95,1.93-.5.81-.8,1.71-.89,2.69Z"/>
        <path class="cls-1" d="M48.92,93.42v-21.09h1.52v21.09h-1.52Z"/>
        <path class="cls-1" d="M53.81,93.42v-21.09h1.52v21.09h-1.52Z"/>
        <path class="cls-1" d="M64.83,93.79c-1.29,0-2.47-.33-3.54-1-1.06-.67-1.91-1.56-2.54-2.68-.63-1.12-.95-2.36-.95-3.72,0-1.03.18-1.99.55-2.89.37-.89.87-1.68,1.51-2.36.64-.68,1.39-1.21,2.24-1.6s1.76-.58,2.73-.58c1.02,0,1.97.2,2.83.6.87.4,1.61.96,2.24,1.68.63.72,1.11,1.57,1.45,2.55.34.98.49,2.05.46,3.21h-12.43c.1,1,.41,1.9.91,2.69.5.79,1.15,1.42,1.93,1.87.79.45,1.65.69,2.6.7,1.04,0,1.98-.27,2.81-.82s1.5-1.3,2.01-2.26l1.53.35c-.56,1.25-1.41,2.27-2.54,3.06-1.13.79-2.4,1.19-3.81,1.19ZM59.35,85.72h10.94c-.06-.97-.33-1.85-.84-2.66-.5-.81-1.16-1.46-1.96-1.95-.81-.49-1.69-.73-2.66-.73s-1.85.24-2.64.72c-.8.48-1.45,1.12-1.95,1.93-.5.81-.8,1.71-.89,2.69Z"/>
        <path class="cls-1" d="M90.23,93.79c-1.33,0-2.58-.26-3.75-.79-1.17-.53-2.2-1.26-3.09-2.2-.89-.94-1.59-2.02-2.09-3.25-.51-1.23-.76-2.55-.76-3.96s.25-2.72.76-3.96,1.2-2.32,2.09-3.25c.89-.94,1.92-1.67,3.09-2.2,1.17-.53,2.42-.79,3.75-.79s2.6.26,3.77.79c1.17.53,2.2,1.26,3.09,2.2.89.94,1.59,2.02,2.09,3.25.5,1.23.75,2.55.75,3.96s-.25,2.72-.75,3.96c-.5,1.23-1.2,2.32-2.09,3.25-.89.94-1.92,1.67-3.09,2.2-1.17.53-2.43.79-3.77.79ZM90.23,92.27c1.14,0,2.21-.23,3.2-.69.99-.46,1.86-1.09,2.6-1.89s1.33-1.73,1.75-2.78c.42-1.05.63-2.16.63-3.33s-.21-2.31-.64-3.36-1.01-1.97-1.76-2.77c-.75-.8-1.62-1.42-2.6-1.88-.98-.45-2.04-.68-3.18-.68s-2.21.23-3.2.69c-.99.46-1.86,1.09-2.6,1.89s-1.33,1.73-1.75,2.78c-.42,1.05-.63,2.16-.63,3.33s.21,2.31.64,3.36c.43,1.05,1.01,1.98,1.76,2.78.75.8,1.62,1.43,2.61,1.88s2.05.67,3.17.67Z"/>
        <path class="cls-1" d="M102.88,93.42v-21.09h1.52v21.09h-1.52Z"/>
        <path class="cls-1" d="M108.55,76.71c-.26,0-.49-.09-.67-.26-.18-.17-.27-.39-.27-.65s.09-.48.27-.65c.18-.17.41-.26.67-.26s.47.09.65.26c.18.17.27.39.27.65s-.09.48-.27.65c-.18.17-.4.26-.66.26ZM107.77,79.37h1.52v14.06h-1.52v-14.06Z"/>
        <path class="cls-1" d="M118.75,93.42h-1.91l-5.13-14.1h1.62l4.47,12.3,4.47-12.3h1.62l-5.13,14.1Z"/>
        <path class="cls-1" d="M131.93,93.79c-1.29,0-2.47-.33-3.54-1s-1.91-1.56-2.54-2.68c-.63-1.12-.95-2.36-.95-3.72,0-1.03.18-1.99.55-2.89.37-.89.87-1.68,1.51-2.36.64-.68,1.39-1.21,2.24-1.6.85-.38,1.76-.58,2.73-.58,1.02,0,1.97.2,2.83.6s1.61.96,2.24,1.68c.63.72,1.11,1.57,1.45,2.55.34.98.49,2.05.46,3.21h-12.43c.1,1,.41,1.9.91,2.69.5.79,1.15,1.42,1.93,1.87.79.45,1.65.69,2.6.7,1.04,0,1.98-.27,2.81-.82.83-.55,1.5-1.3,2.01-2.26l1.53.35c-.56,1.25-1.41,2.27-2.54,3.06-1.13.79-2.4,1.19-3.81,1.19ZM126.44,85.72h10.94c-.06-.97-.34-1.85-.84-2.66-.5-.81-1.16-1.46-1.96-1.95-.81-.49-1.69-.73-2.66-.73s-1.85.24-2.64.72c-.8.48-1.45,1.12-1.95,1.93-.5.81-.8,1.71-.89,2.69Z"/>
        <path class="cls-1" d="M142.05,76.71c-.26,0-.49-.09-.67-.26-.18-.17-.27-.39-.27-.65s.09-.48.27-.65c.18-.17.41-.26.67-.26s.47.09.65.26c.18.17.27.39.27.65s-.09.48-.27.65c-.18.17-.4.26-.66.26ZM141.27,79.37h1.52v14.06h-1.52v-14.06Z"/>
        <path class="cls-1" d="M146.14,93.42v-14.06h1.52v2.15c.51-.78,1.18-1.4,2.01-1.86.83-.46,1.74-.69,2.73-.69.55,0,1.08.07,1.59.21l-.63,1.49c-.4-.11-.8-.17-1.18-.17-.83,0-1.58.2-2.26.6-.68.4-1.23.95-1.64,1.63-.41.68-.61,1.44-.61,2.28v8.41h-1.52Z"/>
        <path class="cls-1" d="M166.9,79.37h1.52v14.06h-1.52l-.04-2.88c-.48.97-1.16,1.76-2.05,2.35s-1.95.89-3.18.89c-1.02,0-1.98-.19-2.87-.58s-1.68-.92-2.37-1.6c-.68-.68-1.22-1.47-1.6-2.36-.38-.89-.58-1.86-.58-2.89s.19-1.98.57-2.87c.38-.89.91-1.68,1.58-2.35.67-.68,1.46-1.21,2.35-1.59.89-.38,1.84-.57,2.85-.57,1.25,0,2.33.3,3.24.91s1.63,1.39,2.14,2.37l-.04-2.88ZM161.61,92.3c1.08,0,2-.26,2.78-.79.77-.53,1.37-1.24,1.78-2.14.41-.9.62-1.89.62-2.97s-.21-2.11-.63-3c-.42-.89-1.01-1.61-1.79-2.14-.77-.53-1.69-.79-2.76-.79s-2.07.27-2.96.8c-.89.53-1.59,1.25-2.12,2.15-.52.9-.79,1.89-.79,2.98s.27,2.1.81,2.99c.54.89,1.25,1.6,2.14,2.12.89.52,1.86.79,2.91.79Z"/>
      </g>
      <g>
        <path class="cls-2" d="M30.42,106.8c-.27,0-.54-.04-.79-.13-.25-.09-.48-.21-.67-.37-.19-.16-.32-.35-.4-.57l.48-.18c.05.15.15.28.29.39.14.11.31.19.5.25.19.06.39.09.59.09.23,0,.45-.04.65-.12.2-.08.37-.19.49-.33.12-.14.19-.31.19-.5s-.06-.35-.19-.48c-.13-.12-.3-.22-.5-.29-.2-.07-.42-.13-.64-.17-.35-.06-.66-.14-.94-.25-.28-.1-.5-.25-.66-.44-.16-.19-.24-.44-.24-.76,0-.29.09-.55.26-.77.17-.22.4-.39.67-.5.28-.12.58-.18.9-.18.27,0,.53.04.78.12.25.08.48.2.67.36s.33.35.42.58l-.49.18c-.05-.15-.15-.28-.29-.39s-.31-.19-.5-.25c-.19-.06-.39-.09-.59-.09-.23,0-.45.04-.65.12s-.36.19-.49.33-.19.3-.19.49c0,.22.06.39.17.51.12.12.27.21.47.27.2.06.43.11.68.16.33.06.63.14.91.26.28.12.51.28.68.47.17.2.26.44.26.73s-.09.55-.26.77c-.17.22-.4.39-.67.51-.28.12-.58.18-.91.18Z"/>
        <path class="cls-2" d="M34.66,106.8c-.34,0-.64-.09-.92-.26-.28-.17-.5-.41-.66-.7s-.25-.61-.25-.97c0-.27.05-.52.14-.75.09-.23.23-.44.39-.61s.36-.32.58-.42c.22-.1.46-.15.71-.15.34,0,.64.09.92.26.28.17.5.41.66.7.16.29.25.62.25.97,0,.27-.05.51-.14.75-.09.23-.23.44-.39.61s-.36.31-.58.42c-.22.1-.46.15-.71.15ZM34.66,106.29c.25,0,.47-.06.67-.2.2-.13.36-.3.47-.52.12-.21.17-.45.17-.7s-.06-.49-.18-.71c-.12-.22-.27-.39-.47-.52s-.42-.19-.67-.19-.47.07-.67.2-.36.3-.47.52c-.12.21-.17.45-.17.71s.06.5.18.71.28.38.48.51c.2.13.42.19.66.19Z"/>
        <path class="cls-2" d="M39.68,105.79l.46.25c-.17.23-.38.42-.63.56-.25.14-.53.21-.83.21-.34,0-.64-.09-.92-.26-.28-.17-.5-.41-.66-.7s-.25-.61-.25-.97c0-.27.05-.52.14-.75.09-.23.23-.44.39-.61s.36-.32.58-.42c.22-.1.46-.15.71-.15.3,0,.57.07.83.21.25.14.46.33.63.56l-.46.25c-.13-.16-.28-.28-.46-.37-.18-.09-.36-.13-.54-.13-.25,0-.47.07-.67.2-.2.13-.36.3-.47.52-.12.21-.17.45-.17.71s.06.49.18.71c.12.21.28.39.48.51.2.13.42.19.66.19.2,0,.39-.05.56-.14.18-.09.32-.21.44-.36Z"/>
        <path class="cls-2" d="M40.99,102.41c-.08,0-.15-.03-.21-.08-.06-.06-.09-.12-.09-.21s.03-.15.09-.21c.06-.05.13-.08.21-.08s.15.03.21.08c.06.06.09.12.09.21s-.03.15-.08.21c-.06.05-.13.08-.21.08ZM40.73,103.05h.51v3.66h-.51v-3.66Z"/>
        <path class="cls-2" d="M43.7,106.8c-.34,0-.64-.09-.92-.26-.28-.17-.5-.41-.66-.7s-.25-.61-.25-.97c0-.27.05-.52.14-.75.09-.23.23-.44.39-.61s.36-.32.58-.42c.22-.1.46-.15.71-.15.27,0,.52.05.75.16s.42.26.59.45c.16.19.29.42.37.68s.12.54.1.84h-3.1c.03.23.1.44.22.62.12.18.27.33.45.43s.39.16.61.16c.24,0,.46-.06.66-.19.2-.13.35-.3.47-.52l.52.12c-.15.32-.37.59-.66.8s-.63.31-.99.31ZM42.4,104.66h2.6c-.02-.23-.09-.43-.21-.62s-.28-.34-.47-.45c-.19-.11-.4-.17-.63-.17s-.43.06-.62.17c-.19.11-.34.26-.46.45-.12.19-.19.4-.22.63Z"/>
        <path class="cls-2" d="M49.11,101.22h.51v5.49h-.51v-.68c-.13.23-.3.42-.52.57-.22.14-.48.21-.78.21-.27,0-.51-.05-.75-.15-.23-.1-.44-.24-.61-.42s-.32-.38-.42-.61c-.1-.23-.15-.48-.15-.75s.05-.52.15-.75c.1-.23.24-.44.42-.61s.38-.31.61-.42.48-.15.75-.15c.3,0,.56.07.78.21s.39.33.52.56v-2.51ZM47.81,106.3c.26,0,.48-.06.67-.19.19-.13.33-.3.43-.52.1-.22.15-.46.15-.72s-.05-.51-.15-.73c-.1-.22-.25-.39-.44-.51-.19-.13-.41-.19-.67-.19s-.49.06-.71.19-.38.3-.51.52c-.13.22-.19.46-.19.72s.06.51.19.72c.13.22.3.39.51.51.21.13.45.19.7.19Z"/>
        <path class="cls-2" d="M53.48,103.05h.51v3.66h-.51l-.02-.68c-.12.23-.29.42-.5.56-.21.14-.47.21-.77.21-.27,0-.52-.05-.75-.15-.23-.1-.44-.24-.62-.42s-.32-.38-.42-.62c-.1-.23-.15-.48-.15-.75s.05-.51.15-.74c.1-.23.24-.44.41-.61.17-.18.38-.31.61-.41.23-.1.48-.15.74-.15.3,0,.57.07.8.22.23.15.41.33.54.57l-.02-.68ZM52.18,106.3c.26,0,.48-.06.67-.19.19-.13.33-.3.43-.52.1-.22.15-.46.15-.72s-.05-.51-.15-.73c-.1-.22-.25-.39-.44-.51-.19-.13-.41-.19-.67-.19s-.49.06-.71.19-.38.3-.51.52c-.13.22-.19.46-.19.72s.06.51.19.72c.13.22.3.39.51.51.21.13.45.19.7.19Z"/>
        <path class="cls-2" d="M57.66,101.22h.51v5.49h-.51v-.68c-.13.23-.3.42-.52.57-.22.14-.48.21-.78.21-.27,0-.51-.05-.75-.15-.23-.1-.44-.24-.61-.42s-.32-.38-.42-.61c-.1-.23-.15-.48-.15-.75s.05-.52.15-.75c.1-.23.24-.44.42-.61s.38-.31.61-.42.48-.15.75-.15c.3,0,.56.07.78.21s.39.33.52.56v-2.51ZM56.36,106.3c.26,0,.48-.06.67-.19.19-.13.33-.3.43-.52.1-.22.15-.46.15-.72s-.05-.51-.15-.73c-.1-.22-.25-.39-.44-.51-.19-.13-.41-.19-.67-.19s-.49.06-.71.19-.38.3-.51.52c-.13.22-.19.46-.19.72s.06.51.19.72c.13.22.3.39.51.51.21.13.45.19.7.19Z"/>
        <path class="cls-2" d="M60.63,106.8c-.34,0-.64-.09-.92-.26-.28-.17-.5-.41-.66-.7s-.25-.61-.25-.97c0-.27.05-.52.14-.75.09-.23.23-.44.39-.61s.36-.32.58-.42c.22-.1.46-.15.71-.15.27,0,.52.05.75.16s.42.26.59.45c.16.19.29.42.37.68s.12.54.1.84h-3.1c.03.23.1.44.22.62.12.18.27.33.45.43s.39.16.61.16c.24,0,.46-.06.66-.19.2-.13.35-.3.47-.52l.52.12c-.15.32-.37.59-.66.8s-.63.31-.99.31ZM59.33,104.66h2.6c-.02-.23-.09-.43-.21-.62s-.28-.34-.47-.45c-.19-.11-.4-.17-.63-.17s-.43.06-.62.17c-.19.11-.34.26-.46.45-.12.19-.19.4-.22.63Z"/>
        <path class="cls-2" d="M64.97,106.7v-5.12h.51v5.12h-.51Z"/>
        <path class="cls-2" d="M69.66,104.44v2.26h-.51v-2.16c0-.2-.05-.38-.15-.54-.1-.16-.23-.29-.39-.39-.16-.1-.34-.15-.54-.15s-.38.05-.54.15-.3.23-.39.39c-.1.16-.15.35-.15.54v2.16h-.51v-3.66h.51v.5c.13-.19.3-.33.5-.44.21-.11.43-.16.68-.16.28,0,.53.07.75.2.23.13.41.31.54.54.13.23.2.48.2.75Z"/>
        <path class="cls-2" d="M73.33,101.22h.51v5.49h-.51v-.68c-.13.23-.3.42-.52.57-.22.14-.48.21-.78.21-.27,0-.51-.05-.75-.15-.23-.1-.44-.24-.61-.42s-.32-.38-.42-.61c-.1-.23-.15-.48-.15-.75s.05-.52.15-.75c.1-.23.24-.44.42-.61s.38-.31.61-.42.48-.15.75-.15c.3,0,.56.07.78.21s.39.33.52.56v-2.51ZM72.03,106.3c.26,0,.48-.06.67-.19.19-.13.33-.3.43-.52.1-.22.15-.46.15-.72s-.05-.51-.15-.73c-.1-.22-.25-.39-.44-.51-.19-.13-.41-.19-.67-.19s-.49.06-.71.19-.38.3-.51.52c-.13.22-.19.46-.19.72s.06.51.19.72c.13.22.3.39.51.51.21.13.45.19.7.19Z"/>
        <path class="cls-2" d="M74.98,102.41c-.08,0-.15-.03-.21-.08-.06-.06-.09-.12-.09-.21s.03-.15.09-.21c.06-.05.13-.08.21-.08s.15.03.21.08c.06.06.09.12.09.21s-.03.15-.08.21c-.06.05-.13.08-.21.08ZM74.72,103.05h.51v3.66h-.51v-3.66Z"/>
        <path class="cls-2" d="M77.83,106.7h-.65l-1.33-3.67h.54l1.12,3.07,1.12-3.07h.54l-1.33,3.67Z"/>
        <path class="cls-2" d="M80.04,102.41c-.08,0-.15-.03-.21-.08-.06-.06-.09-.12-.09-.21s.03-.15.09-.21c.06-.05.13-.08.21-.08s.15.03.21.08c.06.06.09.12.09.21s-.03.15-.08.21c-.06.05-.13.08-.21.08ZM79.78,103.05h.51v3.66h-.51v-3.66Z"/>
        <path class="cls-2" d="M84.14,101.22h.51v5.49h-.51v-.68c-.13.23-.3.42-.52.57-.22.14-.48.21-.78.21-.27,0-.51-.05-.75-.15-.23-.1-.44-.24-.61-.42s-.32-.38-.42-.61c-.1-.23-.15-.48-.15-.75s.05-.52.15-.75c.1-.23.24-.44.42-.61s.38-.31.61-.42.48-.15.75-.15c.3,0,.56.07.78.21s.39.33.52.56v-2.51ZM82.84,106.3c.26,0,.48-.06.67-.19.19-.13.33-.3.43-.52.1-.22.15-.46.15-.72s-.05-.51-.15-.73c-.1-.22-.25-.39-.44-.51-.19-.13-.41-.19-.67-.19s-.49.06-.71.19-.38.3-.51.52c-.13.22-.19.46-.19.72s.06.51.19.72c.13.22.3.39.51.51.21.13.45.19.7.19Z"/>
        <path class="cls-2" d="M85.38,105.3v-2.26h.51v2.15c0,.2.05.38.15.54.1.16.23.29.39.39s.35.15.54.15.38-.05.54-.15.29-.23.39-.39c.1-.16.15-.35.15-.54v-2.15h.51v3.66s-.51,0-.51,0v-.51c-.13.19-.3.33-.51.44-.21.11-.43.16-.67.16-.28,0-.53-.07-.75-.2-.23-.13-.41-.31-.54-.54-.13-.23-.2-.48-.2-.75Z"/>
        <path class="cls-2" d="M92.28,103.05h.51v3.66h-.51l-.02-.68c-.12.23-.29.42-.5.56-.21.14-.47.21-.77.21-.27,0-.52-.05-.75-.15-.23-.1-.44-.24-.62-.42s-.32-.38-.42-.62c-.1-.23-.15-.48-.15-.75s.05-.51.15-.74c.1-.23.24-.44.41-.61.17-.18.38-.31.61-.41.23-.1.48-.15.74-.15.3,0,.57.07.8.22.23.15.41.33.54.57l-.02-.68ZM90.98,106.3c.26,0,.48-.06.67-.19.19-.13.33-.3.43-.52.1-.22.15-.46.15-.72s-.05-.51-.15-.73c-.1-.22-.25-.39-.44-.51-.19-.13-.41-.19-.67-.19s-.49.06-.71.19-.38.3-.51.52c-.13.22-.19.46-.19.72s.06.51.19.72c.13.22.3.39.51.51.21.13.45.19.7.19Z"/>
        <path class="cls-2" d="M93.57,106.7v-5.49h.51v5.49h-.51Z"/>
        <path class="cls-2" d="M99.73,101.22h.51v5.49h-.51v-.68c-.13.23-.3.42-.52.57-.22.14-.48.21-.78.21-.27,0-.51-.05-.75-.15-.23-.1-.44-.24-.61-.42s-.32-.38-.42-.61c-.1-.23-.15-.48-.15-.75s.05-.52.15-.75c.1-.23.24-.44.42-.61s.38-.31.61-.42.48-.15.75-.15c.3,0,.56.07.78.21s.39.33.52.56v-2.51ZM98.43,106.3c.26,0,.48-.06.67-.19.19-.13.33-.3.43-.52.1-.22.15-.46.15-.72s-.05-.51-.15-.73c-.1-.22-.25-.39-.44-.51s-.41-.19-.67-.19-.49.06-.71.19-.38.3-.51.52c-.13.22-.19.46-.19.72s.07.51.19.72.3.39.51.51c.21.13.45.19.7.19Z"/>
        <path class="cls-2" d="M102.7,106.8c-.34,0-.64-.09-.92-.26-.28-.17-.5-.41-.66-.7-.16-.29-.25-.61-.25-.97,0-.27.05-.52.14-.75.09-.23.23-.44.39-.61s.36-.32.58-.42c.22-.1.46-.15.71-.15.27,0,.52.05.75.16.23.11.42.26.59.45.16.19.29.42.37.68s.12.54.1.84h-3.1c.03.23.1.44.22.62.12.18.27.33.45.43.18.11.39.16.61.16.24,0,.46-.06.66-.19.2-.13.35-.3.47-.52l.52.12c-.15.32-.37.59-.66.8s-.63.31-.99.31ZM101.4,104.66h2.6c-.02-.23-.09-.43-.21-.62-.12-.19-.28-.34-.47-.45-.19-.11-.4-.17-.62-.17s-.43.06-.62.17c-.19.11-.34.26-.46.45-.12.19-.19.4-.22.63Z"/>
        <path class="cls-2" d="M108.65,101.58h.64l1.87,5.12h-.54l-.4-1.1h-2.48l-.4,1.1h-.54l1.86-5.12ZM107.92,105.09h2.1l-1.05-2.88-1.05,2.88Z"/>
        <path class="cls-2" d="M114.53,101.22h.51v5.49h-.51v-.68c-.13.23-.3.42-.52.57-.22.14-.48.21-.78.21-.27,0-.51-.05-.75-.15-.23-.1-.44-.24-.61-.42s-.32-.38-.42-.61c-.1-.23-.15-.48-.15-.75s.05-.52.15-.75c.1-.23.24-.44.42-.61s.38-.31.61-.42.48-.15.75-.15c.3,0,.56.07.78.21s.39.33.52.56v-2.51ZM113.22,106.3c.26,0,.48-.06.67-.19.19-.13.33-.3.43-.52.1-.22.15-.46.15-.72s-.05-.51-.15-.73c-.1-.22-.25-.39-.44-.51s-.41-.19-.67-.19-.49.06-.71.19-.38.3-.51.52c-.13.22-.19.46-.19.72s.07.51.19.72.3.39.51.51c.21.13.45.19.7.19Z"/>
        <path class="cls-2" d="M117.64,106.7h-.65l-1.33-3.67h.54l1.12,3.07,1.12-3.07h.54l-1.33,3.67Z"/>
        <path class="cls-2" d="M121.05,106.8c-.34,0-.64-.09-.92-.26-.28-.17-.5-.41-.66-.7-.17-.29-.25-.61-.25-.97,0-.27.05-.52.14-.75s.23-.44.39-.61.36-.32.58-.42c.22-.1.46-.15.71-.15.34,0,.64.09.92.26.28.17.5.41.66.7.17.29.25.62.25.97,0,.27-.05.51-.14.75s-.23.44-.39.61-.36.31-.58.42c-.22.1-.46.15-.71.15ZM121.05,106.29c.25,0,.47-.06.67-.2.2-.13.36-.3.47-.52.12-.21.17-.45.17-.7s-.06-.49-.18-.71-.28-.39-.47-.52c-.2-.13-.42-.19-.67-.19s-.47.07-.67.2c-.2.13-.36.3-.47.52-.12.21-.17.45-.17.71s.06.5.18.71c.12.21.28.38.48.51.2.13.42.19.66.19Z"/>
        <path class="cls-2" d="M126.08,105.79l.46.25c-.17.23-.38.42-.63.56-.25.14-.53.21-.83.21-.34,0-.64-.09-.92-.26-.28-.17-.5-.41-.66-.7-.16-.29-.25-.61-.25-.97,0-.27.05-.52.14-.75.09-.23.23-.44.39-.61s.36-.32.58-.42c.22-.1.46-.15.71-.15.3,0,.57.07.83.21.25.14.46.33.63.56l-.46.25c-.13-.16-.28-.28-.46-.37s-.36-.13-.54-.13c-.25,0-.47.07-.67.2-.2.13-.36.3-.47.52-.12.21-.17.45-.17.71s.06.49.18.71c.12.21.28.39.48.51s.42.19.66.19c.2,0,.39-.05.56-.14.17-.09.32-.21.44-.36Z"/>
        <path class="cls-2" d="M130.15,103.05h.51v3.66h-.51l-.02-.68c-.12.23-.29.42-.5.56-.21.14-.47.21-.77.21-.27,0-.52-.05-.75-.15-.23-.1-.44-.24-.62-.42-.18-.18-.32-.38-.42-.62-.1-.23-.15-.48-.15-.75s.05-.51.15-.74c.1-.23.24-.44.41-.61.17-.18.38-.31.61-.41.23-.1.48-.15.74-.15.3,0,.57.07.8.22.23.15.41.33.54.57l-.02-.68ZM128.85,106.3c.26,0,.48-.06.67-.19.19-.13.33-.3.43-.52.1-.22.15-.46.15-.72s-.05-.51-.15-.73c-.1-.22-.25-.39-.44-.51s-.41-.19-.67-.19-.5.06-.71.19c-.21.13-.38.3-.51.52-.12.22-.19.46-.19.72s.07.51.19.72.3.39.51.51c.21.13.45.19.7.19Z"/>
        <path class="cls-2" d="M133.93,105.79l.46.25c-.17.23-.38.42-.63.56-.25.14-.53.21-.83.21-.34,0-.64-.09-.92-.26-.28-.17-.5-.41-.66-.7-.17-.29-.25-.61-.25-.97,0-.27.05-.52.14-.75s.23-.44.39-.61.36-.32.58-.42c.22-.1.46-.15.71-.15.3,0,.57.07.83.21.25.14.46.33.63.56l-.46.25c-.13-.16-.28-.28-.46-.37s-.36-.13-.54-.13c-.25,0-.47.07-.67.2s-.36.3-.47.52c-.12.21-.17.45-.17.71s.06.49.18.71c.12.21.28.39.48.51.2.13.42.19.66.19.2,0,.39-.05.56-.14.18-.09.32-.21.44-.36Z"/>
        <path class="cls-2" d="M135.25,102.41c-.08,0-.15-.03-.21-.08-.06-.06-.09-.12-.09-.21s.03-.15.09-.21c.06-.05.13-.08.21-.08s.15.03.21.08c.06.06.09.12.09.21s-.03.15-.08.21c-.06.05-.13.08-.21.08ZM134.99,103.05h.51v3.66h-.51v-3.66Z"/>
        <path class="cls-2" d="M139.35,103.05h.51v3.66h-.51l-.02-.68c-.12.23-.29.42-.5.56-.21.14-.47.21-.77.21-.27,0-.52-.05-.75-.15s-.44-.24-.62-.42c-.18-.18-.32-.38-.42-.62-.1-.23-.15-.48-.15-.75s.05-.51.15-.74c.1-.23.24-.44.41-.61.17-.18.38-.31.61-.41.23-.1.48-.15.74-.15.3,0,.57.07.8.22s.41.33.54.57l-.02-.68ZM138.05,106.3c.26,0,.49-.06.67-.19.19-.13.33-.3.43-.52.1-.22.15-.46.15-.72s-.05-.51-.15-.73-.25-.39-.43-.51c-.19-.13-.41-.19-.67-.19s-.49.06-.71.19c-.21.13-.38.3-.51.52-.13.22-.19.46-.19.72s.06.51.19.72c.13.22.3.39.51.51.21.13.45.19.7.19Z"/>
      </g>
    </g>
  </g>
</svg>