<?xml version="1.0" standalone="no"?>
<!DOCTYPE svg PUBLIC "-//W3C//DTD SVG 1.1//EN" "http://www.w3.org/Graphics/SVG/1.1/DTD/svg11.dtd">
<svg xmlns="http://www.w3.org/2000/svg" id="Camada_2" data-name="Camada 2" viewBox="0 0 319.26 58.11" width="319.260009765625" height="58.11000061035156">
  <defs>
    <style>
      .cls-1 {
        fill: #0b1e47;
      }
    </style>
  </defs>
  <g id="Camada_1-2" data-name="Camada 1">
    <g>
      <g>
        <rect class="cls-1" y="55.77" width="18.5" height="2.34"/>
        <rect class="cls-1" x="41.63" width="18.5" height="2.34"/>
        <path class="cls-1" d="M41.71,11.23c-.11-.02-.22-.06-.32-.08-.68-.14-1.38-.22-2.07-.3-.53-.06-1.06-.12-1.58-.17-.24-.02-.53-.02-.81-.04,2.41,3.41,3.62,7.95,3.62,13.61,0,7.21-1.87,12.81-5.62,16.78-3.75,3.98-8.97,5.97-15.66,5.97H4.23V3.18h15.03c6.98,0,12.27,1.78,15.87,5.34.6.59,1.15,1.24,1.65,1.93,1.32-.32,2.69-.5,4.05-.62-.84-1.2-1.81-2.29-2.92-3.27C33.34,2.53,26.63.51,17.79.51H.02v49.16h18.19c5.52,0,10.28-1.01,14.26-3.02,3.98-2.01,7.02-4.93,9.13-8.74,2.11-3.81,3.16-8.37,3.16-13.66s-1.02-9.51-3.04-13.02h0Z"/>
        <path class="cls-1" d="M61.68,13.68c-4.45-4.4-10.65-6.6-18.61-6.6s-14.17,2.2-18.61,6.6c-4.45,4.4-6.67,10.56-6.67,18.47,0,5.76,1.14,10.6,3.4,14.52.29-.11.61-.2.87-.31.51-.21,1.02-.42,1.53-.63.43-.18.86-.36,1.28-.55-1.9-3.52-2.86-7.86-2.86-13.03,0-7.12,1.85-12.63,5.55-16.54,3.7-3.91,8.87-5.86,15.52-5.86s11.82,1.95,15.52,5.86c3.7,3.91,5.55,9.42,5.55,16.54s-1.85,12.82-5.55,16.82c-3.7,4-8.87,6-15.52,6s-11.82-2-15.52-6c-.79-.85-1.49-1.78-2.1-2.78-1.37.3-2.77.54-4.16.65.88,1.5,1.92,2.86,3.14,4.09,4.43,4.47,10.64,6.71,18.65,6.71s14.22-2.24,18.65-6.71c4.43-4.47,6.64-10.73,6.64-18.79s-2.22-14.07-6.67-18.47h0Z"/>
      </g>
      <g>
        <path class="cls-1" d="M90.71,43.06v-26.71h8.83c1.84,0,3.57.35,5.19,1.04,1.61.69,3.03,1.65,4.25,2.88,1.22,1.23,2.18,2.65,2.87,4.25.69,1.61,1.04,3.34,1.04,5.18s-.35,3.57-1.04,5.18c-.69,1.61-1.65,3.03-2.87,4.25-1.22,1.23-2.64,2.19-4.25,2.88-1.62.69-3.34,1.04-5.19,1.04h-8.83ZM92.77,41h6.77c1.56,0,3.03-.29,4.39-.88,1.36-.58,2.56-1.4,3.6-2.43,1.04-1.04,1.85-2.23,2.43-3.6.58-1.36.88-2.82.88-4.39s-.29-3.03-.88-4.39c-.59-1.36-1.4-2.56-2.44-3.6-1.04-1.04-2.24-1.85-3.61-2.43-1.36-.58-2.82-.88-4.37-.88h-6.77v22.59Z"/>
        <path class="cls-1" d="M116.29,43.06v-19.08h2.06v2.92c.69-1.06,1.6-1.89,2.73-2.52,1.13-.62,2.37-.93,3.7-.93.75,0,1.47.1,2.16.29l-.86,2.02c-.55-.15-1.08-.23-1.6-.23-1.12,0-2.14.27-3.07.82-.93.55-1.67,1.28-2.22,2.21-.55.93-.83,1.96-.83,3.09v11.41h-2.06Z"/>
        <path class="cls-1" d="M130.5,20.38c-.36,0-.66-.12-.91-.35-.25-.24-.37-.53-.37-.89s.12-.65.37-.89c.25-.24.55-.35.91-.35s.64.12.89.35c.25.24.37.53.37.89s-.12.65-.36.89c-.24.24-.54.35-.9.35ZM129.45,23.99h2.06v19.08h-2.06v-19.08Z"/>
        <path class="cls-1" d="M144.37,43.56c-1.76,0-3.35-.45-4.8-1.35-1.44-.9-2.59-2.11-3.45-3.63-.86-1.52-1.29-3.2-1.29-5.05,0-1.4.25-2.71.74-3.92.5-1.21,1.18-2.28,2.05-3.2.87-.92,1.89-1.64,3.04-2.16,1.16-.52,2.39-.78,3.7-.78,1.39,0,2.67.27,3.84.81,1.18.54,2.19,1.3,3.04,2.28.85.98,1.51,2.13,1.96,3.46.46,1.33.67,2.78.63,4.36h-16.86c.14,1.36.55,2.58,1.23,3.65.68,1.07,1.55,1.92,2.62,2.54,1.07.62,2.24.93,3.53.94,1.41,0,2.68-.37,3.82-1.12,1.13-.74,2.04-1.76,2.73-3.06l2.08.48c-.76,1.69-1.91,3.07-3.45,4.15-1.54,1.07-3.26,1.61-5.17,1.61ZM136.93,32.61h14.84c-.08-1.31-.45-2.51-1.13-3.61-.68-1.1-1.57-1.98-2.66-2.64-1.09-.66-2.3-.99-3.61-.99s-2.51.32-3.59.97c-1.08.65-1.96,1.52-2.64,2.62-.68,1.1-1.08,2.32-1.21,3.65Z"/>
        <path class="cls-1" d="M157.1,43.06V14.45h2.06v28.61h-2.06Z"/>
        <path class="cls-1" d="M163.73,43.06V14.45h2.06v28.61h-2.06Z"/>
        <path class="cls-1" d="M178.69,43.56c-1.76,0-3.35-.45-4.8-1.35-1.44-.9-2.59-2.11-3.45-3.63-.86-1.52-1.29-3.2-1.29-5.05,0-1.4.25-2.71.74-3.92.5-1.21,1.18-2.28,2.05-3.2.87-.92,1.89-1.64,3.04-2.16s2.39-.78,3.7-.78c1.39,0,2.67.27,3.84.81,1.18.54,2.19,1.3,3.04,2.28.85.98,1.51,2.13,1.96,3.46.46,1.33.67,2.78.63,4.36h-16.86c.14,1.36.55,2.58,1.23,3.65.68,1.07,1.55,1.92,2.62,2.54,1.07.62,2.24.93,3.53.94,1.41,0,2.68-.37,3.82-1.12s2.04-1.76,2.73-3.06l2.08.48c-.76,1.69-1.91,3.07-3.45,4.15-1.54,1.07-3.26,1.61-5.17,1.61ZM171.25,32.61h14.84c-.08-1.31-.45-2.51-1.13-3.61-.68-1.1-1.57-1.98-2.66-2.64-1.09-.66-2.3-.99-3.61-.99s-2.51.32-3.59.97c-1.08.65-1.96,1.52-2.64,2.62-.68,1.1-1.08,2.32-1.21,3.65Z"/>
        <path class="cls-1" d="M213.16,43.56c-1.81,0-3.5-.36-5.09-1.08-1.59-.72-2.99-1.71-4.2-2.99-1.21-1.27-2.16-2.74-2.84-4.42-.69-1.67-1.03-3.46-1.03-5.37s.34-3.7,1.03-5.37,1.63-3.14,2.84-4.42c1.21-1.27,2.61-2.27,4.2-2.99,1.59-.72,3.29-1.08,5.09-1.08s3.52.36,5.11,1.08c1.59.72,2.99,1.71,4.2,2.99,1.21,1.27,2.15,2.74,2.83,4.42s1.02,3.46,1.02,5.37-.34,3.7-1.02,5.37c-.68,1.67-1.62,3.14-2.83,4.42-1.21,1.27-2.61,2.27-4.2,2.99-1.59.72-3.29,1.08-5.11,1.08ZM213.16,41.5c1.55,0,3-.31,4.34-.93,1.34-.62,2.52-1.48,3.53-2.57s1.8-2.34,2.38-3.77c.57-1.42.86-2.93.86-4.52s-.29-3.13-.87-4.56-1.38-2.68-2.39-3.76c-1.02-1.08-2.19-1.93-3.53-2.55-1.34-.62-2.77-.93-4.31-.93s-3,.31-4.34.93c-1.34.62-2.52,1.48-3.53,2.57s-1.8,2.34-2.37,3.77c-.57,1.42-.86,2.93-.86,4.52s.29,3.14.87,4.56c.58,1.42,1.38,2.68,2.39,3.77,1.02,1.09,2.2,1.94,3.54,2.55s2.78.92,4.3.92Z"/>
        <path class="cls-1" d="M230.33,43.06V14.45h2.06v28.61h-2.06Z"/>
        <path class="cls-1" d="M238.01,20.38c-.36,0-.66-.12-.91-.35-.25-.24-.37-.53-.37-.89s.12-.65.37-.89c.25-.24.55-.35.91-.35s.64.12.89.35c.25.24.37.53.37.89s-.12.65-.36.89c-.24.24-.54.35-.9.35ZM236.96,23.99h2.06v19.08h-2.06v-19.08Z"/>
        <path class="cls-1" d="M251.86,43.06h-2.59l-6.96-19.13h2.19l6.07,16.69,6.07-16.69h2.19l-6.96,19.13Z"/>
        <path class="cls-1" d="M269.74,43.56c-1.76,0-3.35-.45-4.8-1.35-1.44-.9-2.59-2.11-3.45-3.63-.86-1.52-1.29-3.2-1.29-5.05,0-1.4.25-2.71.74-3.92.5-1.21,1.18-2.28,2.05-3.2.87-.92,1.89-1.64,3.04-2.16,1.16-.52,2.39-.78,3.7-.78,1.39,0,2.67.27,3.84.81s2.19,1.3,3.04,2.28c.85.98,1.51,2.13,1.96,3.46.46,1.33.67,2.78.63,4.36h-16.86c.14,1.36.55,2.58,1.23,3.65.68,1.07,1.56,1.92,2.62,2.54,1.07.62,2.24.93,3.53.94,1.41,0,2.68-.37,3.82-1.12,1.13-.74,2.04-1.76,2.73-3.06l2.08.48c-.76,1.69-1.91,3.07-3.45,4.15-1.54,1.07-3.26,1.61-5.17,1.61ZM262.3,32.61h14.84c-.08-1.31-.46-2.51-1.14-3.61-.68-1.1-1.57-1.98-2.66-2.64-1.09-.66-2.3-.99-3.61-.99s-2.51.32-3.59.97c-1.08.65-1.96,1.52-2.64,2.62-.68,1.1-1.08,2.32-1.21,3.65Z"/>
        <path class="cls-1" d="M283.47,20.38c-.36,0-.66-.12-.91-.35-.25-.24-.37-.53-.37-.89s.12-.65.37-.89c.25-.24.55-.35.91-.35s.64.12.89.35c.25.24.37.53.37.89s-.12.65-.36.89c-.24.24-.54.35-.9.35ZM282.42,23.99h2.06v19.08h-2.06v-19.08Z"/>
        <path class="cls-1" d="M289.02,43.06v-19.08h2.06v2.92c.69-1.06,1.6-1.89,2.73-2.52,1.13-.62,2.37-.93,3.7-.93.75,0,1.47.1,2.16.29l-.86,2.02c-.55-.15-1.08-.23-1.6-.23-1.12,0-2.14.27-3.07.82-.93.55-1.67,1.28-2.22,2.21-.55.93-.83,1.96-.83,3.09v11.41h-2.06Z"/>
        <path class="cls-1" d="M317.2,23.99h2.06v19.08h-2.06l-.06-3.91c-.65,1.32-1.57,2.39-2.78,3.2s-2.64,1.21-4.32,1.21c-1.39,0-2.69-.26-3.9-.79s-2.29-1.25-3.21-2.17c-.93-.92-1.65-1.99-2.17-3.2-.52-1.21-.78-2.52-.78-3.92s.26-2.68.77-3.89c.52-1.21,1.23-2.27,2.15-3.2.92-.92,1.98-1.64,3.19-2.16,1.21-.52,2.5-.77,3.87-.77,1.69,0,3.16.41,4.4,1.23s2.21,1.89,2.91,3.21l-.06-3.91ZM310.03,41.54c1.46,0,2.72-.36,3.77-1.08,1.05-.72,1.85-1.69,2.41-2.91.56-1.22.84-2.56.84-4.03s-.28-2.86-.85-4.07c-.57-1.21-1.37-2.18-2.42-2.9-1.05-.72-2.3-1.08-3.75-1.08s-2.81.36-4.02,1.09c-1.2.72-2.16,1.7-2.87,2.92-.71,1.22-1.07,2.57-1.07,4.04s.37,2.86,1.1,4.06c.73,1.21,1.7,2.17,2.91,2.88,1.21.71,2.52,1.07,3.95,1.07Z"/>
      </g>
    </g>
  </g>
</svg>